<mxfile host="65bd71144e">
    <diagram id="A7M_pUfB6gFGBg00x9R5" name="ページ1">
        <mxGraphModel dx="1608" dy="1041" grid="0" gridSize="10" guides="1" tooltips="1" connect="1" arrows="1" fold="1" page="0" pageScale="1" pageWidth="827" pageHeight="1169" math="0" shadow="0">
            <root>
                <mxCell id="0"/>
                <mxCell id="1" parent="0"/>
                <mxCell id="4" value="" style="edgeStyle=none;curved=1;rounded=0;orthogonalLoop=1;jettySize=auto;html=1;fontSize=12;startSize=8;endSize=8;entryX=0.526;entryY=0;entryDx=0;entryDy=0;entryPerimeter=0;" edge="1" parent="1" source="5" target="10">
                    <mxGeometry relative="1" as="geometry"/>
                </mxCell>
                <mxCell id="5" value="API Handler Lambda" style="sketch=0;points=[[0,0,0],[0.25,0,0],[0.5,0,0],[0.75,0,0],[1,0,0],[0,1,0],[0.25,1,0],[0.5,1,0],[0.75,1,0],[1,1,0],[0,0.25,0],[0,0.5,0],[0,0.75,0],[1,0.25,0],[1,0.5,0],[1,0.75,0]];outlineConnect=0;fontColor=#232F3E;fillColor=#ED7100;strokeColor=#ffffff;dashed=0;verticalLabelPosition=bottom;verticalAlign=top;align=center;html=1;fontSize=12;fontStyle=0;aspect=fixed;shape=mxgraph.aws4.resourceIcon;resIcon=mxgraph.aws4.lambda;" vertex="1" parent="1">
                    <mxGeometry x="-117.36000000000001" y="-46" width="78" height="78" as="geometry"/>
                </mxCell>
                <mxCell id="6" value="" style="edgeStyle=none;curved=1;rounded=0;orthogonalLoop=1;jettySize=auto;html=1;fontSize=12;startSize=8;endSize=8;exitX=0;exitY=0.5;exitDx=0;exitDy=0;exitPerimeter=0;entryX=1;entryY=0.75;entryDx=0;entryDy=0;" edge="1" parent="1" source="8" target="24">
                    <mxGeometry relative="1" as="geometry">
                        <mxPoint x="-414" y="97" as="targetPoint"/>
                    </mxGeometry>
                </mxCell>
                <mxCell id="8" value="Reminder Handler Lambda" style="sketch=0;points=[[0,0,0],[0.25,0,0],[0.5,0,0],[0.75,0,0],[1,0,0],[0,1,0],[0.25,1,0],[0.5,1,0],[0.75,1,0],[1,1,0],[0,0.25,0],[0,0.5,0],[0,0.75,0],[1,0.25,0],[1,0.5,0],[1,0.75,0]];outlineConnect=0;fontColor=#232F3E;fillColor=#ED7100;strokeColor=#ffffff;dashed=0;verticalLabelPosition=bottom;verticalAlign=top;align=center;html=1;fontSize=12;fontStyle=0;aspect=fixed;shape=mxgraph.aws4.resourceIcon;resIcon=mxgraph.aws4.lambda;" vertex="1" parent="1">
                    <mxGeometry x="-321" y="78" width="78" height="78" as="geometry"/>
                </mxCell>
                <mxCell id="9" value="" style="edgeStyle=none;curved=1;rounded=0;orthogonalLoop=1;jettySize=auto;html=1;fontSize=12;startSize=8;endSize=8;entryX=1;entryY=0.5;entryDx=0;entryDy=0;entryPerimeter=0;" edge="1" parent="1" source="10" target="8">
                    <mxGeometry relative="1" as="geometry"/>
                </mxCell>
                <mxCell id="10" value="EventBridge Scheduler" style="sketch=0;points=[[0,0,0],[0.25,0,0],[0.5,0,0],[0.75,0,0],[1,0,0],[0,1,0],[0.25,1,0],[0.5,1,0],[0.75,1,0],[1,1,0],[0,0.25,0],[0,0.5,0],[0,0.75,0],[1,0.25,0],[1,0.5,0],[1,0.75,0]];outlineConnect=0;fontColor=#232F3E;fillColor=#B0084D;strokeColor=#ffffff;dashed=0;verticalLabelPosition=bottom;verticalAlign=top;align=center;html=1;fontSize=12;fontStyle=0;aspect=fixed;shape=mxgraph.aws4.resourceIcon;resIcon=mxgraph.aws4.eventbridge;" vertex="1" parent="1">
                    <mxGeometry x="-117.36000000000001" y="78" width="78" height="78" as="geometry"/>
                </mxCell>
                <mxCell id="11" value="" style="endArrow=classic;html=1;rounded=0;exitX=1;exitY=0.5;exitDx=0;exitDy=0;entryX=0;entryY=0.5;entryDx=0;entryDy=0;entryPerimeter=0;" edge="1" parent="1" source="24" target="20">
                    <mxGeometry width="50" height="50" relative="1" as="geometry">
                        <mxPoint x="-428.5" y="65.5" as="sourcePoint"/>
                        <mxPoint x="-308.5000000000001" y="-18.000000000000227" as="targetPoint"/>
                    </mxGeometry>
                </mxCell>
                <mxCell id="12" value="LINE Webhook" style="edgeLabel;html=1;align=center;verticalAlign=middle;resizable=0;points=[];" vertex="1" connectable="0" parent="11">
                    <mxGeometry x="-0.2" y="1" relative="1" as="geometry">
                        <mxPoint x="14" y="1" as="offset"/>
                    </mxGeometry>
                </mxCell>
                <mxCell id="15" value="" style="endArrow=classic;html=1;rounded=0;exitX=1;exitY=0.5;exitDx=0;exitDy=0;exitPerimeter=0;entryX=0;entryY=0.5;entryDx=0;entryDy=0;entryPerimeter=0;" edge="1" parent="1" target="5">
                    <mxGeometry width="50" height="50" relative="1" as="geometry">
                        <mxPoint x="-219.36000000000013" y="-7" as="sourcePoint"/>
                        <mxPoint x="-47.360000000000014" y="124" as="targetPoint"/>
                    </mxGeometry>
                </mxCell>
                <mxCell id="16" style="edgeStyle=none;curved=1;rounded=0;orthogonalLoop=1;jettySize=auto;html=1;entryX=0;entryY=0.75;entryDx=0;entryDy=0;entryPerimeter=0;fontSize=12;startSize=8;endSize=8;" edge="1" parent="1">
                    <mxGeometry relative="1" as="geometry">
                        <mxPoint x="-297.36" y="13" as="sourcePoint"/>
                        <mxPoint x="-297.3600000000001" y="12.499999999999773" as="targetPoint"/>
                    </mxGeometry>
                </mxCell>
                <mxCell id="20" value="&lt;div&gt;&lt;span style=&quot;background-color: light-dark(rgb(251, 251, 251), rgb(21, 21, 21));&quot;&gt;API Gateway&lt;/span&gt;&lt;/div&gt;" style="sketch=0;points=[[0,0,0],[0.25,0,0],[0.5,0,0],[0.75,0,0],[1,0,0],[0,1,0],[0.25,1,0],[0.5,1,0],[0.75,1,0],[1,1,0],[0,0.25,0],[0,0.5,0],[0,0.75,0],[1,0.25,0],[1,0.5,0],[1,0.75,0]];outlineConnect=0;fontColor=#232F3E;fillColor=#E7157B;strokeColor=#ffffff;dashed=0;verticalLabelPosition=bottom;verticalAlign=top;align=center;html=1;fontSize=12;fontStyle=0;aspect=fixed;shape=mxgraph.aws4.resourceIcon;resIcon=mxgraph.aws4.api_gateway;" vertex="1" parent="1">
                    <mxGeometry x="-292" y="-46" width="78" height="78" as="geometry"/>
                </mxCell>
                <mxCell id="21" value="&lt;div&gt;&lt;span style=&quot;background-color: light-dark(rgb(251, 251, 251), rgb(21, 21, 21));&quot;&gt;Parameter Store&lt;/span&gt;&lt;/div&gt;&lt;div&gt;&lt;span style=&quot;background-color: light-dark(rgb(251, 251, 251), rgb(21, 21, 21));&quot;&gt;&lt;br&gt;&lt;/span&gt;&lt;/div&gt;" style="sketch=0;outlineConnect=0;fontColor=#232F3E;gradientColor=none;fillColor=#E7157B;strokeColor=none;dashed=0;verticalLabelPosition=bottom;verticalAlign=top;align=center;html=1;fontSize=12;fontStyle=0;aspect=fixed;pointerEvents=1;shape=mxgraph.aws4.parameter_store;" vertex="1" parent="1">
                    <mxGeometry x="39.05" y="104" width="75" height="78" as="geometry"/>
                </mxCell>
                <mxCell id="22" value="" style="shape=image;verticalLabelPosition=bottom;labelBackgroundColor=default;verticalAlign=top;aspect=fixed;imageAspect=0;image=data:image/png,iVBORw0KGgoAAAANSUhEUgAAAKIAAAClCAYAAADf9yajAAAAAXNSR0IArs4c6QAAAARnQU1BAACxjwv8YQUAAAAJcEhZcwAADsMAAA7DAcdvqGQAAA3mSURBVHhe7d1rcJblncfxb84Jp3AmknAuEAQpOG1nK9213ZnVup12p7tVX7TdF53udMd90cVZt9syO9odUTvO2Bkd2kGrdUXxAGsXV0BRKkcFjBA5CwlnOUVCCIFAEsi+uMgQ/uTw3Icnz/+6n/9nhgn53XnhY37c13247uvOaW9vb8eYDMuVgTGZYEU0KlgRjQpWRKOCFdGoYEU0KlgRjQpWRKOCFdGoYEU0KlgRjQpWRKOCFdGoYEU0KlgRjQpWRKOCFdGoYEU0KlgRjQpWRKOCFdGoYEWM08rfweu/lqlJQY49ThqTzz6CR7/r/v69uXDvPPkTpge2R4zDxUZ44cHr37/1W9j0p84/YXphRYzDS/8Bx/ffmD3/r3Bsz42Z6ZYVMapVz8LGN2QKly7A83PhSpvcYrpgRYxizwZY9CuZXldTBS8+JFPTBStiWE31PZeww5pF8N5zMjWCFTGsxQ/D0d0y7dpLv4Rda2VqOrEihrHy97D+VZn27I//BvXHZWqusSIGtXMtLP5Pmfbu1EFY9EuZmmusiEE01cNrD8s0dVXLYeljMjVWxICWPgaHd8o0mGVPwcYlMs16VsRUrX8NVr8o03Be+gUcrJZpVrMipuJETbxD6sVGeHmeu+htwIqYoqWPxX/Gu28zvGITIzpYEXuz8vew5S2ZxmPNy7BigUyzkhWxJzVVsHS+TOP16sNQvUqmWceK2JMl86Hlkkzj9/I8qDss06xiRezO0sdg93qZpsepg670WcyK2JXqVe56X1/66E03pSxLWRGllmZY+rhMe9ZvAAweJtPglsyH2q0yzQpWROntp+HwDpl2Ly8Pps2CqTOhuERuDebSBVjyqEyzghWxs4PVsPxpmfaso4D5+XDr7e5rFLvWxXvx3BNWxM6WPwMtl2XavfJxMGT49e9L+sHULwM5nX8quGVPZd0lHStih41vwOZlMu3ewFIYN1mmMHgojO8iD2rJfDh/RqaJZUXk2r3f5c/ItHsFBe64MKebPV/5OBg5WqbBHNmVVZd0rIhcG5KPpvroZw5MnQUFhXLDjb40ze01o/jgJVi3WKaJZEWs/cSdKadq3CQoHSzTm+Xkwq2zoahYbglmyXw4vk+miWNFfPtpuHpFpl0bMhwqJsi0e/kFUDlLpsE0nMqKITq7i7husZu+n4qiYphym0x7N2AgTJom02Cqlgc7hvVQ9haxqT71ITkn152chL1GWFYBw8tkGsyS+bD3Q5kmht9FPFkLezfKNDXvLHQzr1MxsRL6D5RpMJOnR7vzcqXNlbE1wHVOj/hdxAX/BM/8JPgv52QtvPcHmXZtRBmUlcs0uNxcmDbbfQ1r3+bE3nWJ8H8lw95dCIe2Q+MZePI+ubVn778AF8/J9Gb9B8LkGTINr19/t2eMYsUC+Pj/ZOo9P4t4YJubTNphz0b473/v/BPdO1id2t4wP7/ni9ZhDS+DURUyDWbJo/E/Q5Nhfhaxq+n7778AG16X6c3efz61yzWVX45+DbA7E6e6vWNYJ2rhzSdk6jX/ivjmb2DHGpk6C//FXXfrzu71sC6FNWsqJkDpUJnGp+N4MS9Pbknd2sWwdaVMveVXEU8d6H1YnfdXMrlu9QsyuVnpYHf3JN2KS2DCFJkGk6Bri34VcdVz0HRWpjdqPANP/VCm8MkK2NLLQX5hkbuPHHUaV6pGVcDQETJN3b4tiSmjP0Ws3eqKmIpt7958W2z1H2/8XsrJccNlQYHckl6Tp7tbgWG9/Uzq10MV86eIQR8seuu311f63/A67PhA/sSNJkx1t+P6Wn4BTI1wiaipPviscoX8eM/K9tXw5P0yTc1XvgMNJ6HmE7nlumGjoHKmTPtWzW449blMUzd3Edx+j0y94cceMcoyblXLey5hYRFMvlWmfW9iZbRbgJ4fK+ovYtNZt0dMlykzIC/kZIY45ea6B7HCnih5fuKiv4jbV/d+phzWyNHpvV4Y1IBBMGaiTFPn8YmL/iJ++r5M4lFY5O5waDNmApQMkGlqPD5x0V3EdA7LWoZkKSfHnUWHvcft6R0X3UVM17A8qlzXkCz1Hwijx8k0dR4eK+ouYjqG5cIid81Qu7GToCjkWbSHJy56i5iuYXnKjGiTDfpKbm60uZCrnoXGOpmqpbeIOz6If1guq9A9JEulg91/cxj1J9zxoid0FzFORSUwPuJsl0wYPwUKe3mYvzvrXoHLF2WqkuIi/lkm0Uye7seQLOXlwaSQjxecPODK6AGdRdzxQc8TXIMaNgpKh8jUH0OHu88QxppXwIPpBDqLuO1dmYSXkwsTYlidK9MmTAl3bfHITi/Wz9FZxE/fk0l4t4wJfxlEk6Li8CcuHgzP+op4bA+cjulVD3n5MDbCvVttxkwM91z0vi1usXjFQnyqNKupkkl4YyfqvI0XVkGh28OHoXyvqK+Ih7bLJJyikvC/NM0qxoc7+9+5Fra9I1M19BXxcExFHDfJnagkTX5h+PvQii9w6/tNxbFHLCyKvvqWZreMCfeP7JMVsGutTFUI8WnS6NheaGuVaXCjx4W71OGLgkIYNlKmqVG6V9RVxDiG5dzc8Jc5fBL2M370P/GeEMZEVxHjGJbLKsIdzPumdIh7r0sYCs+gdRUxyKvHupQD5eNlmFxhVxX7eLl73Zoiuop4+pBMghk20p2oZItR5eGOhZvq0zPpOAI9RbzaBmciPGAOMPIWmSRbfj4MSuFVG12Je3ZTRHqKGPW2Xm5uPK+q9U3/QTJJTdzzPSNSVMSIw/KgweHuw/quf8hHT+uPuzW5ldDzm4taxLB7Bt9FWThK0RtQ9RSxLuLQHGUpYJ/1i1DEXetkkjF6ihj1GLEkS4vItZOWMBQtT6KniBcaZBJMb28LTbK8kAt9Np+Hc6dlmhF6ihhVkuYdBhXls5/YL5OMSFARs+C2XneifPbjOobn5BQxlXenJFWUz257xJi1xjB9zFetLTJJnZITlgQVMcIvw3ctAV+K2dmFmJd1CSk5RWxqlEl2aIv4D/Bys0wyworouwtNMglGydo4CSpiCq+9TaLGiENrixXxRoMjPuzUfBHa2mSafOciFtH2iMLEWTIJruGMTJLvfMSR4JIV8UYTYihi3QmZJNvp43D1qkyDGVYuk4zQU8QxMbz96eyZeB5H9cWxgzIJrqJSJhmhp4j9SqFimkyDab8KX8S4rqJm5+rdcXFU5ToWttdTRGI6TjxxRCbJdLRWJuFYEbsQx/B88ULy94p1J+BcxGlzHcptaL5ZHEUEOLwf0L9cbyhXWuHAPpmGZ3vELsRVxEvNcDqhZ9CH9ke/rddh6l9AUcjVImKmq4iDRsCce2UazsF9yZsIUXcSTkZ89ruzr3xHJhmjq4gAd8RUxLZW+OzT5AzR5xtg/y6ZRjPjmzLJGH1FnPnXMP0vZRrOuQY4ekCm/rncDLur3eWpuIyfGf1yWYz0FRFgzn0yCe/oAb+PF5svwo6q+C/UT79TJhmls4h33AvlMb2urB2o2Qknjsot+jU1wvbNcPmS3BLdrTGNOjHRWcS8/Hj3iu3Agb3x3BLrK2e/gB0fp2dG0ey73SGQIjqLCPDNH8HImNc6PFwDn22HKxEeNkq31lao3eOOCaNOaOjOt/5RJhmnt4gDh8O3/1mm0X1xCqo/ggvn5ZbMam+Hk8dg20b3NV1n+7Pvdn+U0VtEgL/5qbvoGrdLzVC9yd2B0bB3bGyATze7PWG6n0ZUuDdEfREB7v6ZTOJz7BB8vN4dO6ZrGOxOezucOQ07q9yxYF/soZXuDQFy2ts9eIfqgp/Cpv+VabwKC91C8KPGhH9RdyraWuHU5+4sPh1nwz2Ztwwq58hUBT+KWFMFv/62TNNn6AhXyiHD5ZZwzp9zw+/5BrcXzITvPwR//wuZquFHEQFWLIBXH5ZpeuXlueXuSvq59ReL+7u9ZUEB5Oa7y0z5+W5GTEsrtF6GlhY3KeFSs3uyMK7pWlFMmwO/WiZTVfwpIsDCB2DDGzI1vVE8JHfQf7LS2c9+B2Ony9T05PsPqS8h3u0RwQ1/P9Hx5Jl6t98DcxfJVCW/9ogABUXwqK5XM6hU+XVvSoiXe8QOtVvhkbtkarj2iOjjG2Sqmr9FBNi/Bf7rb2Wa3YaUwdM7Zaqe30UE9yLsJ/5BptmpsBiePyZTL/h3jChNvxMe1Pfa1z5XPsXbEpKIInLtHurPX4x/2pgv/u5BeOJDmXrF/6G5s1MH4bVHoGq53JJcDyyEr/t/aJKsInZ48zfwpydlmizjboMfP56eaXIZkMwiAlS9Da8+Ev1lkxp99+fwvblQHPLNpAolt4gAZ0/Au8/Ce89BSx9PuUqHGXe640EPbtkFlewidji6G1Y9C2tellv8MHS0e2zingfklsTIjiJ22LvR7SF9OZkZPxO+cR/MuR8GDJFbEyW7ithh/xbY+g5sewc+j3Flrbjc9i34xv1wxw/klsTKziJ2Vr3KlXLrSjhXJ7f2nbHTYdZd7s/kr8qtiWdF7HCxEXb8GT7bBPs2weE+uF9bPtUthDT7LnVLgPQ1K2J36o64Y8o9H8KeDfBFDEuWVFTCl74KU74Gk78GZZPkT2QtK2KqLjRA3WE4fcR97fiTk+MWuywa4L4W94eSgVA6EkpHuDUfO/6en8anAz1nRTQqJGPSg/GeFdGoYEU0KlgRjQpWRKOCFdGoYEU0KlgRjQpWRKOCFdGoYEU0KlgRjQpWRKOCFdGoYEU0KlgRjQpWRKOCFdGoYEU0Kvw/CYO6kq2evqwAAAAASUVORK5CYII=;" vertex="1" parent="1">
                    <mxGeometry x="-18" y="-1" width="54.1" height="55.1" as="geometry"/>
                </mxCell>
                <mxCell id="23" value="&lt;font style=&quot;font-size: 12px;&quot;&gt;Hono&lt;/font&gt;" style="text;strokeColor=none;fillColor=none;html=1;align=center;verticalAlign=middle;whiteSpace=wrap;rounded=0;fontSize=16;" vertex="1" parent="1">
                    <mxGeometry x="-20.95" y="38.999999999999986" width="60" height="30" as="geometry"/>
                </mxCell>
                <mxCell id="24" value="" style="shape=image;verticalLabelPosition=bottom;labelBackgroundColor=default;verticalAlign=top;aspect=fixed;imageAspect=0;image=data:image/png,iVBORw0KGgoAAAANSUhEUgAAA+kAAAPoCAYAAACiYb/aAAAAAXNSR0IArs4c6QAAIABJREFUeAHs3b+LHEf6x3En2nPoyPElzi9R/g38ByjQLBcKnDk6EMoFzpwcGBwvOHRiHDheHJx2scE2AgUGgxYcGBRYGGxQYNgvj+zR/pqZnenp7nqq6tVw59X+6Ol+17urnk//qH7rLQsCCGxN4O2Tf//z7ZP7/xf/+8eT+/85ODl8HP+7c3r43zsni+PL/zs4Xbw8OFmc+x8GHOAABzjAAQ606MDluie+PjhZHC1ro6iTljXTnf8t/rV1seUXEUAAAQQQeEPg+N47MZgcPDm8dz14tziw2icFIwc4wAEOcIADsztwuvj+cqC/c7J48FeY//c/39RkvkAAAQQQ6ItADAQxILw+03u6+OLvgcIVb1f9OcABDnCAAxzgQGkH3oT4w8fLAP/W8b13+qpW7S0CCCDQKIG4Nf3NVfG/bsF6PvvZ4tIDnc9XbHGAAxzgAAc40IYDz/+6sPJXeHcLfaMFvN1CAIF2CEQgj7Oty2fDhXG373GAAxzgAAc4wIH2HYjg/nf990Bwb6e2tycIIFAhgdfPjsekbaeLL0zQ1v4ArMjSxhzgAAc4wAEObOXA6eLl8op71Itula+w0LfJCCBQB4FlKPf8uAF6qwG6jdv63J6pHTnAAQ5wgANjOBDPuZ8e/jcegxTa66j9bSUCCCQkELcrvZ5h/a9nyQ1QYwxQ1sEjDnCAAxzgAAc4cH7wd2h/faU9YR1skxBAAIEUBJbPlLt93ZVyV8o5wAEOcIADHODArA6cLr74673uXgOXIhjYCAQQKEdgebU8zmbO2hE7g+wqAgc4wAEOcIADHODAageev56I7n+Lf5Wrkn0yAgggMCOBCOavnwk6WXgd2uqBwYCJCwc4wAEOcIADHMjgwOni5cHJ4uj1s+wz1ss+CgEEEJicwF/vKl8cmYXdrWvumOAABzjAAQ5wgANVOiCwT54ZfAACCExMwBVzA3CVA3CGs/a2wdUjDnCAAxzgQG4HBPaJk4TVI4DAaARi8reYkf3Arey5BxYDv/bhAAc4wAEOcIADYzngGfbR0oQVIYDAOASO771z52TxwPvLXTl35ZwDHOAABzjAAQ507cDp4vuYJd672MeJGdaCAAI7EvhrZnbPmXc9EDkDP9YZeOvhEgc4wAEOcKA9B468h33HgOHXEUBgAIG/r5p7ZZqz5E5OcIADHOAABzjAAQ5s5cBzV9cH5A5/ggACmwnEs+avX5v21yQZzvS2d6ZXm2pTDnCAAxzgAAc4ML0DR3E36ubK208RQACBDQTiFp2D08UXzpJudZbUwDb9wIYxxhzgAAc4wAEOVO9AzOUUczptKMP9CAEEELhKIDoNM7QL5k7OcIADHOAABzjAAQ5M6oBb4a/GEP9CAIErBI7vvfP69Wluaa/+7KzBdNLBlB+u4HCAAxzgAAc4MK4Dr+vvw8fxiOmV+tw/EECgUwLC+bidrEELTw5wgAMc4AAHOMCB4Q4cCeud5jK7jUAc/AcniyNXXV115QAHOMABDnCAAxzgQDoHhHWRDYFeCAjn6TpgZ5qHn2nGDjsOcIADHOAAB1p3QFjvJajZz/4ICOfCuTPkHOAABzjAAQ5wgAPVOiCs9xfh7HGzBJbPnDvL2vpZVvvHcQ5wgAMc4AAHONC+A8J6s8HNjrVPYBnOzdZusGp/sNLG2pgDHOAABzjAga4cuHN6+N+3ju+9036osYcINELg9XvOhfOuOmq3rlV76xpPFZUc4AAHOMABDgxz4O9XtwnrjYQ4u9EmgbdP7v/fwcniucAmsHGAAxzgAAc4wAEOcKAbB57HRbo2E469QqBSAjEp3J2TxbGOuJuOeNjZVmepceMABzjAAQ5wgAPtOnC6+D4u2lUaaWw2Ao0QOL73TjyPIpwL5xzgAAc4wAEOcIADHODAawdOF1/ERbxGEo/dQKAeAp471wkbiDnAAQ5wgAMc4AAHOLDSgeXz6vXEG1uKQL0E7vxv8S+3tuuMV3bGbl9r9/Y1battOcABDnCAAxwY5sBzt8DXm/1seXYCbm3XMQ/rmHHDjQMc4AAHOMABDvTuwOniC7PAZw98tq8qAgdPDu8deKWawaX3wcX+OwY4wAEOcIADHODAcAdOFy//8eT+f6oKQjYWgXQEju+9c3C6+MKtzW5v5wAHOMABDnCAAxzgAAfGcCAenY1HaNNlHxuEQHYCcZbL1XMd8RgdsXXwiAMc4AAHOMABDnDgpgOHj7NnItuHQAoC3nmuA73ZgWKCCQc4wAEOcIADHODABA6cLr53VT1FDLQRWQm4ej5Bx+O5peHPLWGHHQc4wAEOcIADHOjEAVfVs2ZE21WKgGfPO+n8nIRwBpwDHOAABzjAAQ5wIKkDrqqXSoM+NxsBM7cn7aScNXbihAMc4AAHOMABDnCgNwfMAJ8tLtqeWQnE1fOTxZEziUI6BzjAAQ5wgAMc4AAHOJDJgZgB3nvVZ02HPqw0gZic4eBk8TzTgWhbDAwc4AAHOMABDnCAAxzgwBsHThcv467f0tnJ5yMwOYHXk8P1dtuM/XWrGAc4wAEOcIADHOAAB6p04M7p4X8nD0k+AIEiBEwOV2Wn9OZMokFF+3GAAxzgAAc4wAEO9OrA6eL7eFV0kRzlQxGYgoDb2902JOxzgAMc4AAHOMABDnCgagfc/j5FVLTOEgTc3q4zrroz7vVssf12pYQDHOAABzjAAQ6sdMDt7yVSpc8ch4DZ21ce1AKrkxYc4AAHOMABDnCAAxyo3IHTxfdmfx8nNlrLTARe395+uvhe51N55+PsqRMtHOAABzjAAQ5wgAMcWO3A6eJl5J6ZIpaPQWA4gXhNwUE8r+FgXn0w44ILBzjAAQ5wgAMc4AAHmnHgzsniwfD05C8RmJjAwcnhY+Hc1XMOcIADHOAABzjAAQ5woDMHjiaOWlaPwI4EPH/ezJnAzjpT7eYsPgc4wAEOcIADHODAOA54Tn3HEOnXpyPw1/vPPX+ucxunc8MRRw5wgAMc4AAHOMCBeh147jn16aKnNW9B4O8J4jx/Xm8nYgDQdhzgAAc4wAEOcIADHBjTgdPFy7dP7v/fFnHKryAwLgETxHnOyK3xHOAABzjAAQ5wgAMc4MBqB0woN27+tLZbCIRwDsbVByMuuHCAAxzgAAc4wAEOcIAD4cCd08P/3hKt/BiB/QmEaDodnQ4HOMABDnCAAxzgAAc4wIGtHDDz+/4x1BrWETg4WRw5ELc6ED3XM+ZzPdbFJw5wgAMc4AAHOMCBmh0w8/u6iOn7gwn8NYP7FwK6gM4BDnCAAxzgAAc4wAEOcGCAA4L64DjqD68T8Io1Zy1rPmtp2/nLAQ5wgAMc4AAHOJDFgdPF917Rdj1w+vduBAR0HVqWDs12cJEDHOAABzjAAQ5woAUHThcvBfXdYqnf/pvA3+9A/96tLANuZWmh87APBkEOcIADHOAABzjAAQ5M44CgLnfvSuDvgP5SQBfQOcABDnCAAxzgAAc4wAEOTOCAoL5rTO339wX0CQ5AZyCnOQOJK64c4AAHOMABDnCAAzU7IKj3G7y33XMBXUB3lpQDHOAABzjAAQ5wgAMcmNGB08XLgyeH97bNbH6vIwIC+owHYs1n+2y7s9Uc4AAHOMABDnCAAxwY3YE7J4sHHcVPu3obAQFdQHe2lAMc4AAHOMABDnCAAxwo64Cgflty7eTnAnrZA1FHiD8HOMABDnCAAxzgAAc4sHTg7ZP7/9dJFLWbqwgI6DqDZWfgv1zgAAc4wAEOcIADHOBAAgdMJrcquvbxPQE9wQHoWZ7Rn+UxsPCaAxzgAAc4wAEOcKB6BwT1PkL5lb08vvfOwcniefXyCrlCLgc4wAEOcIADHOAABzjQogOC+pUI2/Y/IqCfLr4X0J1h5AAHOMABDnCAAxzgAAc4kNgBQb3tbP567wR0ZxlbPMton3jNAQ5wgAMc4AAHONCqA6eLl28d33ung7Ta5y66gp74LFmrnYr9MmBygAMc4AAHOMABDnBgPwdOF98L6g1m+IOTxZFbWYR0DnCAAxzgAAc4wAEOcIADFTogqLeV0gX0Cg9CZxv3O9uIH34c4AAHOMABDnCAA605cLr4oq2k2une/OPJ/f84Uyakc4ADHOAABzjAAQ5wgAMcaMKBo06jbRu7fedk8cCB2MSB6Cxoa2dB7Q+nOcABDnCAAxzgAAcGOhAXYttIrJ3txZ3/Lf4loAvoHOAABzjAAQ5wgAMc4AAH2nMgLsh2FnHr3t23T/79z4PTxUsHY3sHozbVphzgAAc4wAEOcIADHOBAOBAXZutOrr1svXehu21m4G0zOnudPQc4wAEOcIADHOAABypy4HTxMi7Q9hJ1q93POyeLYwdWRQeWQO2kCgc4wAEOcIADHOAABzgw1AGvZsud3e+cHv5XQBfQOcABDnCAAxzgAAc4wAEOdOSAV7PlDOpmcu/oIBx6ls3fOUPLAQ5wgAMc4AAHOMCBRh04fJwzqXa6Va9ncjdRXKMHm5MPzgJzgAMc4AAHOMABDnCAA1s48OTwXqeRONlux0RxJ4vnpN1CWmcNncjgAAc4wAEOcIADHOAAB1p14HTx0ozvCfK6ieKEcydoOMABDnCAAxzgAAc4wAEOvHbARHJlU7qJ4hyIOmMOcIADHOAABzjAAQ5wgANXHDCRXJmgfvDk8N6Vhmj1lg375XYkDnCAAxzgAAc4wAEOcIADOznwjyf3/1MmqXb6qfHC+gMTxe0kqRMazi5ygAMc4AAHOMABDnCAAz054Pn0GU8YHJwuvu9JLvuqM+UABzjAAQ5wgAMc4AAHOLCzA8/fOr73zoxRtc+P8hz6zmK64u7WIA5wgAMc4AAHOMABDnCgTwc8nz7tiQPPoQvozh5ygAMc4AAHOMABDnCAAxzYxQHPp0+V0+N96J5D7/Psl7Oe2p0DHOAABzjAAQ5wgAMc2MMBz6dPENS9D93Zsl3OlvldvnCAAxzgAAc4wAEOcIADbxzw/vRxU3rcnvAG7h5nT6zDQcoBDnCAAxzgAAc4wAEOcKBPB2J+s3GTaqdri9sSHER9HkTaXbtzgAMc4AAHOMABDnCAA6M68OTwXqfRerzd9ro1B+WoB6U7MTzLxAEOcIADHOAABzjAgX4dOF289Fq2PfL6wcnhYwFNSOcABzjAAQ5wgAMc4AAHOMCB0RzwWrZhKd1t7g7C0Q5CZ0r7PVOq7bU9BzjAAQ5wgAMc4MAqB9z2vmNQj9etnSyeC2mCOgc4wAEOcIADHOAABzjAAQ6M7oDb3ncL6W5zdxCOfhCuOnvme86qcoADHOAABzjAAQ5woF8H3Pa+XVB3m7uALqBzgAMc4AAHOMABDnCAAxyYxQG3vd8e1M3m7mCc5WB0xrTfM6baXttzgAMc4AAHOMABDiwdcNv75pDuNncBXUDnAAc4wAEOcIADHOAABzgwswNHm5Nqpz99++Tf/5y5IZw9Wp498l8ucIADHOAABzjAAQ5wgAMdO/D2yf3/6zSKr9/tOyeLYyHdGTMOcIADHOAABzjAAQ5wgAMcKODA8/VptcOf3DlZPCjQCM6UdXymjG86fg5wgAMc4AAHOMABDnDgqgOHjzuM4yt2Od6Jfrp4eRUOWfDgAAc4wAEOcIADHOAABzjAgXkdiMewV6TWvr515/Twv8SbVzy88eYABzjAAQ5wgAMc4AAHOHDTgXgMu69Efm1vvRP9phQOFEw4wAEOcIADHOAABzjAAQ4UdKDnd6ebLK6geJ5HNycBBzjAAQ5wgAMc4AAHOMCBVQ70OYncwZPDe84OCekc4AAHOMABDnCAAxzgAAc4kM+B3iaRi8niThbP8zWEg0ObcIADHOAABzjAAQ5wgAMc6N6B08XLriaROzg5fNx9o7utZNVtJb7HCw5wgAMc4AAHOMABDnAgiwNH16ZVa/SfXrmWRTjbofPjAAc4wAEOcIADHOAABziwwYGY7LzRZH6xWwcniyNX0d0+wwEOcIADHOAABzjAAQ5wgAPZHWj+lWxxT3/2RrB9OgoOcIADHOAABzjAAQ5wgAMcWDrw9sn9/7u47NzYV165RvSl6P7LBQ5wgAMc4AAHOMABDnCgEgfafCVbnH2opAE8k7HhmQxtqCPlAAc4wAEOcIADHOAAB3pz4M7J4kFj19DfestVdAdybwey/eU8BzjAAQ5wgAMc4AAHmnGgravprqI3I6a7DNxlwAEOcIADHOAABzjAAQ506UBTV9NdRRfSnUHkAAc4wAEOcIADHOAABzhQtQOni5dvHd97p/rb3l1FdyBWfSA6S9rlWVLO6rc4wAEOcIADHOAAB1Y7cPi4+pDuKjq5V8uNCy4c4AAHOMABDnCAAxzgQGUO1H413VX0yoRz1dhVYw5wgAMc4AAHOMABDnCAA7c4UPHVdFfRhXRnBjnAAQ5wgAMc4AAHOMABDjTlQK1X011FdyA2dSA6m3jL2US+850DHOAABzjAAQ5woB8Hqpzp3VX0fgTVGWlrDnCAAxzgAAc4wAEOcKAzB+p6b7qr6A7Qzg5QV5ndacABDnCAAxzgAAc4wIHOHKjqarqr6EK6kM4BDnCAAxzgAAc4wAEOcKBxB+q4mv72yb//2XhDOEPW2RkyPhtcOMABDnCAAxzgAAc4wIGVDjw5vJf+vekHJ4ujlRsv2An3HOAABzjAAQ5wgAMc4AAHONCQA3EXeeqQ7iq6s0tO0HCAAxzgAAc4wAEOcIADHOjJgZiTLW1QPzg5fNxTY9hXnQ8HOMABDnCAAxzgAAc4wIHuHTjKG9JPFy8J2r2gbt9p6PYdx7PjmQMc4AAHOMABDnCAA7c7EHeVpwvqMf28xru98TDCiAMc4AAHOMABDnCAAxzgQGsOHD5OF9IPThffE6010ewPpznAAQ5wgAMc4AAHOMABDtzqwOniZaqQHg/K37rRbgF2GzgHOMABDnCAAxzgAAc4wAEONOpA3F2eJqh77ZozS07ScIADHOAABzjAAQ5wgAMc6NqB08X3OUL68b13um6IRs8CaVMdLAc4wAEOcIADHOAABzjAgd0cuPO/xb+KB/V/PLn/Hw23W8PhhRcHOMABDnCAAxzgAAc4wIEmHSj/OraDk8VzcjUpl2dl3CXBAQ5wgAMc4AAHOMABDnBgFwdiArnje+8Uu5puwjjh3AkaDnCAAxzgAAc4wAEOcIADHLhwoOgEciaMu2gIUmLBAQ5wgAMc4AAHOMABDnCAA/F68jJX0mPCuNPFSxKSkAMc4AAHOMABDnCAAxzgAAc4cOHA2yf//ufsQT0u4WuEi0bAAgsOcIADHOAABzjAAQ5wgAMcCAfunB7+t0RIPyYgATnAAQ5wgAMc4AAHOMABDnCAAzcceD5rSI9L9xrhRiOY9XCXWQ/9Ll84wAEOcIADHOAABzjAgZYdeHJ4b7ag7t3oArqTNBzgAAc4wAEOcIADHOAABziw0YH53pnu3egbG8LZsJbPhtk3fnOAAxzgAAc4wAEOcIAD2zgQ70yfY7nzv8W/nC0R0jnAAQ5wgAMc4AAHOMABDnCAA5sdmOWd6TFLnYbY3BD44MMBDnCAAxzgAAc4wAEOcIADB6eLLya/mO5Wd6LpbDjAAQ5wgAMc4AAHOMABDnBgOwfeOr73zmRB3a3u2zUCWXHiAAc4wAEOcIADHOAABzjAgXBg0lve3epOMh0NBzjAAQ5wgAMc4AAHOMABDuzgwJS3vLvVfYeG2Ga2P79jVkgOcIADHOAABzjAAQ5wgAPNOzDJ7e5udRfQnS3jAAc4wAEOcIADHOAABzjAgQEOPDm8N3pQ/8eT+//RGAMaw1mx5s+KOS4cFxzgAAc4wAEOcIADHODALQ4cjR7SD04X39/yocKYQM4BDnCAAxzgAAc4wAEOcIADHLjuwOni5agh/e2Tf/9TQHdmiAMc4AAHOMABDnCAAxzgAAc4MMyBt0/u/99oQT2mjNcQwxoCN9w4wAEOcIADHOAABzjAAQ5wIN6WNlpIPzhdfEEqUnGAAxzgAAc4wAEOcIADHOAABwY6cLr4fsyQ/lJDDGyI688i+LfnUzjAAQ5wgAMc4AAHOMABDnTpQDxKvndQj/vmBXQBnQMc4AAHOMABDnCAAxzgAAc4sJ8D8Sj53iE97pvXEPs1BH74cYADHOAABzjAAQ5wgAMc4EA8Sr53SPfqNSLpTDjAAQ5wgAMc4AAHOMABDnBgBAf2fhXb8b13NMQIDeF5ky6fN3HsOHY4wAEOcIADHOAABzjAgesO3Pnf4l+Dr6YfPDm8d32F/k0yDnCAAxzgAAc4wAEOcIADHODAUAcOHw8O6Z5HHwrd3zlgOcABDnCAAxzgAAc4wAEOcOCmA3dOFseDQ7rn0W8CJRkmHOAABzjAAQ5wgAMc4AAHOLCPA8NCuufRPUftWXoOcIADHOAABzjAAQ5wgAMcGN2BeNX5zkHd8+jODO1zZsjf8ocDHOAABzjAAQ5wgAMc4MA6BwY8l+559HUwfd+BxgEOcIADHOAABzjAAQ5wgAPDHRj0XLrn0YcDJyt2HOAABzjAAQ5wgAMc4AAHOLDWgSHvS1+7Ms8jjP48AtYOXg5wgAMc4AAHOMABDnCAA305sNP70uMhdoL0JYj21t4c4AAHOMABDnCAAxzgAAfmc+DOyeLB1pPHHZwcPtY48zUO1lhzgAMc4AAHOMABDnCAAxzozoGj7UP66eILgnQniNv4PcrBAQ5wgAMc4AAHOMABDnBgLgdOF99vH9JPFs+FdCGdAxzgAAc4wAEOcIADHOAABzgwnQPbhfTje+9ohOkaAVtsOcABDnCAAxzgAAc4wAEOcCAciPngbg3qJo0jiw6DAxzgAAc4wAEOcIADHOAAB6Z34B9P7v/n1pBu0rjpG4LsGHOAAxzoz4F3v31w/v6zx1f+98FPn55/9PPnK//32Yvj869/ezbZ/2L96z77/o8fX9nO2O7Yft7256021+Yc4AAHJnfg9snjDkwapwiZa6IEn8M1DnCgUgfuPn30JsReDrpf/vrNm1D9wx/Pz1teYv+WJxFivy9zWJ6MCE6Ku8mLO4wr7UccG44NDnDgtQPbTB53YNI4g53BjgMc4ECnDrz33Yevw3dcSV6GzmUQPXv1ouXMPfm+Bb8lyyXb5RX74K5YVaxygAMc4ECvDmxxuzs5epXDfnOfAxxo3YFlCH94dvQ6hC+vfL/88/fJQ6oPuJ1AtEME+eWV+WinuCovxOubWu+b7B/HOdC3AxsnjzNpXN9y6By0Pwc40IIDyyAeV2s/+eWr16HPVfDbA3INv7G8xT7aVoDXX7XQX9kHHnOAA+HAnZPFg7VX0+OHRCEKBzjAAQ7U4EA877y8LT2uvLb+DHgNIbrkNl6+Ah9eeB5eP1ZDP2YbecoBDvzlwOHjtSHdzO4k0VFwgAMcyObA5SvjwnjJGFznZ8fJm+VM9map179l699sDyc5wIFw4M7J4nhtSI8fEoUoHOAABzhQyoHLV8fjyqhnxesMxtm3evnse9w2H1fdPfOuzyvV5/lc7nGAA3878HxtSDezO0l0FBzgAAfmciCCUQSk5XPj2YOd7WubgOCu75ur7/M5XOMAB1Y5sCmkewVKp68dWiWK7+lAOMCBsRx499sHr2fpjiuXccu6K+RtB95W9i48Xc40H7fKj3U8WI++lQMc4AAHrjtw53+Lf90I6mZ2J8p1UfybExzgwFAH4ir5Bz99+voquQndWoms9iMIhM9x94fb5PWPQ/tHf8cdDnBgpQNPDu/dCOkHTw7vrfxlV5adOecABzjAgVsciGfJI5THBF1edybM9kQgfA/vw3/Ptiu81dIc4AAHhjuwYoZ3M7sTarhQ2GHHgd4cWF4pd+t6T3HUvm5DQGg3HvQ2HthfznNgNAeOblxJv3N6+F+ARwPsqtstV924xjUO1OXAMpS7Ur5NTPM7CFwQuBzaY24GfV9dfZ/20l4c4MBcDqx8DZvXrxFwLgF9Dtc4UIcDy5nXPVN+Ebh8hcC+BJbPtJuIro5+0HilnTjAgRkduPkatoPTxfczboAzya40c4ADHEjmQFwtf3h29Ho2632DiL9HAIHbCSxnj/c8uxCgBucABzgQDty43Z0YxOAABzjQnwNxNS9mqjbZ2+2Bym8gMDWB5VX2mIhRf9xff6zNtTkHOPD2yb//eRHUj++9QwpScIADHGjfgXgmdjkLu3eVTx25rB+B4QTi+Iw5IOKxE8+yt983G3+1MQc4EA7Ea9HfhHTvSCeFjoEDHGjXgeWkbzETuwUBBOokEMdvnGAT2Nvtq43D2pYDHIjXogvpyZ4HdWA6MDnAgbEcWD5fbtK3OgOZrUZgE4Gvf3v2ev6IOM7H6jOsx/jDAQ5wIIMDl96V/o8n9/+jUTI0im3gIQc4MNwBwXxTrPEzBNokECfiYsJHgX1432ncwY4DHMjjwKWQfnBy+DjPhpFEW3CAAxzY1gHBvM3gZa8QGEIgArtb4o0f244ffo8rHEjowOniize3u985PfyvRkrYSG7HdxsfBziwwoHl5G+eMR8SY/wNAn0Q8Ay7uk5tzwEO1OfAnZPF8UVIP1kca8T6GlGbaTMO9OVAzPIsmPcRsOwlAmMSWM4Sb8zoa8zQ3tqbA/U5IKSvuDpF5PpE1mbarHUH4n3J8R5zr0sbM7JYFwJ9Eoh+JPoT72E3drY+dto/jtfswJsr6Qeni+9r3hHb7kDkAAdaciBuZ4+JoM5evegzSdhrBBCYnMBywjmvdDN+tjR+2hc+t+DARUh3VdlzrxzgAAeKO+B29slziQ9AAIEVBNwOL9i0EGzsA49bcUBIF0qKh5JWDib7YWAY6kDMzv7Rz5+7ar4iOPgWAgjMSyDu3on+yOvcjGlDxzR/xx0O7O/A2yf3/+91UAdzf5gYYsgBDuzigKvm84YPn4YAArsRiEkqo5/apV/zu8ZBDnCAA/s78Dqk3/nf4l9g7g8TQww5wIHbHIhnP1013y0o+G0EEChOlV8ZAAAgAElEQVRLIK6uxxwZnl03xt02xvk5RzgwjgOvQ3r8H6DjAMURRw5wYJUD7z97fB7PfFoQQACBmglEP2ZmeOPcqnHO93jBgfEcENI9k+42Ng5wYEIHPvjp0/OYQdmCAAIItETg69+enUf/pigfryjHEksOcGDpwD+e3P/PW66kE2IphP9ygQP7O7C8pd17zVuKJPYFAQRWEVhONOdW+P3HDuMvhhzgwIUDh4+F9Amvol2AJh0WHGjdgZgN2S3tq8p430MAgR4IRP9nVnhjfetjvf3j+DwOHD5+Ky6nz/NhGhVnDnCgPQfiefO49dOCAAIIIHB+HrPCR79ovGtvvNOm2pQDczlw+Pitg5PDx4DPBdzncI0DrTjgeXNxBAEEEFhPwHPrxvtWxnv7weX5HRDSnel1uz8HOLCTAxHO4zlMCwIIIIDA7QSivzTJnJAzf8jBHPOaHRDSdyrOyV6z7Ladv8MdMBnc7YW430AAAQQ2EfC+9eFjkPEbOw5058CR291dRXSiggMcWOOAcL6p5PYzBBBAYHcC8eaLj37+/NyM8N2FDrXGmlpDAHcsXHfgzsniWEh3wOg0OcCBaw4I57sX3v4CAQQQ2IWAsC6YXA8m/s0JDvzlgJB+rTAnhs6BA307IJzvUmL7XQQQQGB/AsJ63+Ouukv7c+CmA0K6kO4KKgc4cLJ4fdtl3H4ZxaIFAQQQQGB+AsL6zUJdeMGEA306IKQLaAIaB7p2wJXz+Qtxn4gAAghsIiCs9xlKhFHtzoELB4R0Aa3rgKYzuOgMemThyvmmMtnPEEAAgbIEvLqt7zG6x7rEPnN+6YCQLqQL6RzozgHvOS9bePt0BBBAYBcCwrrgsgwu/suFXhwQ0gW07gJaLwe3/bw5kL3/7PF5FHsWBBBAAIH6CPzwx/Pz6MeNbzfHN0ww4UBbDgjpQrrBjgPNOxBF3de/PauvIrXFCCCAAAI3CER/fvfpo+bHLqGrrdClPbXnLg4I6QKaQY4DzTrw3ncfnn/24vhGgecbCCCAAAL1E4j+Pfr5XQpfvysocYADNTggpAtoBjcONOfAcsb2+ktQe4AAAgggsImAmeAFrhoCl23k6a4OCOkCWnMBbdeDwO+31XHGpHDedb6ppPUzBBBAoD0CJpdrayxXm2nP3h0Q0oV0IZ0DTTgQz53HpEIWBBBAAIF+CcTz6iaXE/B6D3j2v/5jQEgX0JoIaDqj+jujoW0YzyN++es3/Vak9hwBBBBA4AaBeF49Hn0aOrb4u37rCm2v7TM4IKQL6QYwDlTrwEc/f+7W9hulqW8ggAACCASBePTp4dlRtWNchqBgGwRWDpRxQEgX0AxeHKjOgbiV0fvOFeEIIIAAAtsQiPHCLfBlgoaAhzsHhjkgpAto1QU0B/uwg70Fbm5t36Yc9TsIIIAAAqsIuAW+3/qhhRrIPvTlr5AupAvpHKjCgbhl0aztq8pO30MAAQQQ2JaAW+D7CjqCrfau1QEhXUCrIqDVeoDZ7v0Hh7tPH5m1fdvq0+8hgAACCGxFIGaBj/HFOL3/OI0hhhwY3wEhXUg3QHEgpQMxK+8nv3y1VbHllxBAAAEEEBhCICYgNQv8+AFDaMOUA/s5IKQLaCkDmgN7vwO7dn4mhhtSavobBBBAAIEhBEws13fNUXvNZPvb9FdIF9KFdA6kcSCuZnjn+ZAS098ggAACCOxLIO7eclW9zcAjyGrX2hwQ0gW0NAGttoPH9o7b4d//8WMTw+1bYfp7BBBAAIG9CMRV9RiPjPHjjvF44smB3RwQ0oV0AxEHijrg6vle9aQ/RgABBBCYgEDc1eWq+m6hQgjDiwPjOSCkC2hFA5qDebyDuUaWrp5PUFlaJQIIIIDAKATidW2uqvddp9RYW9nmNpwV0oV0IZ0Dszvg6vko9aOVIIAAAgjMQMCz6m2EHuFVO9bkgJAuoM0e0Go6QGzr+B16zNweVycsCCCAAAII1ELADPDj1wNqLEw5sN4BIV1IF9I5MIsDcfXce89rKUdtJwIIIIDAKgIxjgkW64MFNthwYBwHhHQBzWDDgckduPv00XlchbAggAACCCBQO4Ef/nh+HuOaMDJOGMERRw7cdEBIF9AMMhyY1IGPfv689nrM9iOAAAIIIHCDwMOzo0nHT8HlZnDBBJNeHBDSBTQDDAcmceC97z48//q3ZzeKGt9AAAEEEECgFQIxznlVm+DYS3C0n/O5LqQLaJMENAfxfAdxRtZerdZK+Wk/EEAAAQRuIxCTocakqBnHY9vUdz2m/ettfyFdSDeocGBUB0wOd1s55+cIIIAAAi0SMKlcvYFImNV22RwQ0gW0UQNaNsFtz3ydbtzeHpPpWBBAAAEEEOiVQIyDMR6qP+arP7DGukUHhHQh3UDCgb0dcHt7r+Wo/UYAAQQQuE4gbn+PcbHF4GCfBGIOzOOAkC6gGUQ4sJcDbm+/Xp75NwIIIIAAAufnbn+fJ8wIjTi36ICQLqDtFdBaPCjs03advdvblaAIIIAAAghsJmD29+1qCrUXThy46oCQLqQL6RzY2YGYxTZu57MggAACCCCAwGYCZn+/Gj6EMTw4cLsDQrqAtnNAc2DdfmC1zOijnz/fXI34KQIIIIAAAgjcIPDw7EjNpe7mAAe2ckBIJ8pWorQcOu3bdicd3v32wfmXv35zo+jwDQQQQAABBBDYjsBnL47PYzxVe2xXe+CEU68OCOlCuoGCA7c6cPfpI69X267+8lsIIIAAAghsJOA1bYJnr8HTfm/vvpAuoN0a0BxQ2x9QLbLyerWNtZYfIoAAAgggsDMBz6n3XVu1WC/ap3GdFtKFdCGdA2sdiOfnLAgggAACCCAwDYEPfvp07Rgs9IwbevDEsyYHhHQBzeDAgRsOxPNy8dycBQEEEEAAAQSmJRDjbU3hwbYKuxyY3gEhXUAzMHDgigMR0ON5OQsCCCCAAAIIzEMgxl0Tyk0ffIRLjGtxQEgX0K4EtFrEtZ3TdLIxQZz3n89TkPkUBBBAAAEELhOIoB7jsBpnmhoHV1xrckBIF9INBhx47YAJ4i6XSr5GAAEEEEBgfgImlBMkawqStnU6X4V0AU1I58B5TFxjQQABBBBAAIEcBEwoN134ESyxrcEBIV1AE9I7d8AEcTkKMluBAAIIIIDAZQIf/fy5Gq3zGq2GMGkbpznpIaQ7+A0AnTpgBvfLpZCvEUAAAQQQyEfAzO/TBCDBEtfsDgjpnQa07GLavmk7TzO45yvEbBECCCCAAAKrCHz92zMzv6vXXVTrzAEhvbMGF36nDb818H3vuw+9Ym1VFeR7CCCAAAIIJCXgFW3qtxpqTNs4nqdCupDuzFxHDnjFWtLqy2YhgAACCCBwC4GzVy+8oq2jmk3gHS/w1shSSHewC+mdOCCg31L9+DECCCCAAALJCcQr2rxLve/wVmPgtM27OyukdxLQHBy7HxwtMfMO9ORVl81DAAEEEEBgSwKCet81XUv1qX1Z77KQLqS7kt64A96BvmXV49cQQAABBBCoiIB3qa8POMIfNrU7IKQ3HtBqF9T279fJCugVVVs2FQEEEEAAgR0JCOr71UnqTPyyOiCkC+mupDfqgIC+Y6Xj1xFAAAEEEKiQgKAuaGYNmrZruJtCeqMBzUEx/KBogd1HP39eYZlhkxFAAAEEEEBgCAFBve+6r4Xa1T5cdVhIF9JdSW/Mgc9eHA8Z3/0NAggggAACCFRMQFC/GnKEPjxqdkBIbyyg1Syjbd+/MxXQK66ubDoCCCCAAAJ7Evjkl69cfFHbc6ABB4T0BhpRuN0/3LbAUEDfs7Lx5wgggAACCDRAIOqBFuoa+6C+7dkBIV1I15E34ICA3kBVZRcQQAABBBAYiYCgLuD2HHBb2HchvYGA1oKI9mH4YCKgj1TRWA0CCCCAAAINERDUh9dW6lLsSjsgpAvprqRX7ICA3lA1ZVcQQAABBBAYmYBn1IXN0mHT5w9zUEivOKCRfpj0rXAT0EeuZKwOAQQQQACBBgmY9b3verGVure3/RDShXRX0it0wHvQG6yi7BICCCCAAAITERDUBfXeQm7t+yukVxjQapfO9u83UMRAa0EAAQQQQAABBHYhIKjvV3+pX/Gb0wEhXUh3Jb0iBwT0XcoRv4sAAggggAAClwkI6oLmnEHTZw33TUivKKARfbjoLbAT0C+XGb5GAAEEEEAAgSEEBPW+68kWauIe9kFIF9JdSa/AAQF9SBnibxBAAAEEEEBgFYG7Tx+p/yqo/3oIo/Zx9UkjId0BqpNO7kAMpC///H3VGOt7CCCAAAIIIIDAzgSirhDUV4cjoRGXDA4I6ckDWgZJbEO5zkpA37nu8AcIIIAAAgggsAUBQb1cfae2xv42B4R0Id2V9KQOvPfdh66gb1Fk+BUEEEAAAQQQGEbg7NWL83e/faAWTFoL3hbk/LzdsC+kOyh1zAkdiAHzhz+eDxtx/RUCCCCAAAIIILAlgag3BPV2w54gX2fbCukJA5qDqc6Daax2E9C3rCr8GgIIIIAAAgiMQuDr3565aCMTcCCRA0J6osYYK+RZT90h/7MXx6MMuFaCAAIIIIAAAghsSyDqDzVk3TWk9mun/YR0IV2HnMgBAX3bUsLvIYAAAggggMDYBD76+XN1YaK6UOhuJ3Tv2pZCugNRZ5zEAe9CH7vUsD4EEEAAAQQQ2JVA1CO7Bgq/32+Y1PbTtL2QniSgEXwawWvhev/Hj3cdQ/0+AggggAACCCAwCQHvUO+7Lq2lfm55O4V0Id3Z0sIOeBf6JPWFlSKAAAIIIIDAQALeoS6ktxyAa9g3Ib1wQKtBEts4XUcdM7nHO0otCCCAAAIIIIBAJgJezTZd/ae2xvY2B4R0Id2V9IIOeBd6pnLEtiCAAAIIIIDAZQJezSZM3hYm/XwaR4T0ggGN1NNIXQtXM7lfLgN8jQACCCCAAAIZCXzyy1cu6MgLHJjZASF9ZuC1BEjbOe0JBDO5ZyxDbBMCCCCAAAIIrCJgxvdp60J1N77XHRDShXRnxmZ24P1nj1eNf76HAAIIIIAAAgikJGAiOSHyeoj072mdENJnDmiEnlbo7Hzf++7D8xjoLAgggAACCCCAQE0EYqLbmPA2e61l+/qutVtpfyFdSNfZzuiAieJqKkdsKwIIIIAAAghcJmAiOQG4lRCcfT+E9BkDWnYZbN+0Ha+J4i4P875GAAEEEEAAgRoJmEhu2npRPY5vOCCkC+mupM/ggIniaixDbDMCCCCAAAIIrCJw/8eP1Y8z1I8Ce7+BXUh3gOlkJ3bg7tNHnkNfNcL7HgIIIIAAAghUScBEcv2GRycO5ml7IX3igEbkeUTOyjkmWPEcepX1h41GAAEEEEAAgQ0Eor4xkVzfdW7W+ruF7RLShXRX0id04Mtfv9kwvPkRAggggAACCCBQL4GYb6eFQGQfnGzI5oCQPmFAy9bYtmfeDujh2VG9o64tRwABBBBAAAEEtiAQ8+6oMeetMfFun7eQLqTrWCdwwHPoW4zqfgUBBBBAAAEEqicQz6e/992H6skJ6klhvP0wvq6NhXQHlE51ZAc8h159vWEHEEAAAQQQQGAHAvF8+rqw4fv9Bk1tP7zthfSRAxoZh8vYCrt4f6gFAQQQQAABBBDoiYD3p6uBW6nlM+yHkC6kO/M5ogPx3lALAggggAACCCDQI4H3nz1WV45YV2YIi7ahzMkXId2BpDMdyYG4zT2ey7IggAACCCCAAAI9Eog6yGvZyoQ6Ybot7kL6SAHNgdHWgTGkPb/+7VmP47F9RgABBBBAAAEE3hCI188OqaP8jVqaAxcOCOlCuo50BAe8bu3N2OwLBBBAAAEEEOicgNeyXYQtwROLIQ4I6SMEtCHg/U07B6zXrXVeidh9BBBAAAEEELhCwGvZ2qlzZZYybSmkC+mupO/pQLx2xIIAAggggAACCCBwQSAeAxTwygQ83OvnLqTvGdAcBPUfBPu04Uc/f34xGvkKAQQQQAABBBBA4A2BeBxwnzrL3/ZdZ/fc/kK6kK7zHOhA3OZuQQABBBBAAAEEEFhNwG3vQnbPQXuffRfSBwa0faD72zY6LLe5rx6QfRcBBBBAAAEEEFgScNt7G3Wv/DJvOwrpQror6QMccJv7cuj1XwQQQAABBBBAYDMBt73PG/AE6vp5C+kDAhrx6xd/nzZ877sPN49EfooAAggggAACCCDwhoDb3vuunfepu3v9WyFdSHclfUcH4rYtCwIIIIAAAggggMD2BNz2Lqj3GriH7LeQvmNAGwLZ37TTKcXtWhYEEEAAAQQQQACB3Qnc//FjF4dkDw5s4YCQvgUkIbudkL1PW7777YPzuF3LggACCCCAAAIIILA7gaijop7apx7zt+ryHhwQ0oV0HeWWDnz56ze7j0b+AgEEEEAAAQQQQOANgU9++UrtuWXt2UMYtY+rT7oI6Q4SHeUWDrz/7PGbwcUXCCCAAAIIIIAAAsMJRF0lnK0OZ7jgEg4I6VsENAeLg+Xs1YvhI5G/RAABBBBAAAEEEHhD4Ic/ngvpMggHNjggpG+AI5wL5+GAd6K/GVN9gQACCCCAAAIIjELAu9PV2bLWegeEdCHdWawNDsQ70U0WN8pYbCUIIIAAAggggMAbAiaRWx/QhFdshPQNAc0B4gAxWdybsdQXCCCAAAIIIIDAqAQ+e3HsYpEswoEVDgjpK6AI58J5OGCyuFHHYStDAAEEEEAAAQRuEDCJnLpb9rrpgJAupDt7tcaBmNTEggACCCCAAAIIIDAdga9/e6YWXVOLCq83w2svTIR0B4WOcYUDMZmJBQEEEEAAAQQQQGB6Ah/89Kl6dEU92ksgtZ83T0YI6Q4IneI1B9799oHJ4qYfj30CAggggAACCCDwmkC86jbqL2HtZljDpE8mQvq1gOZA6PNAuNzuXrmmYkAAAQQQQAABBOYlEPXX5XrM12rynh0Q0oV0HeIlB+KVaxYEEEAAAQQQQACBeQl4JZtQ3nMov77vQvqlgHYdjn/311nEq0AsCCCAAAIIIIAAAvMT8Eq2/mpveWt1mwvpQror6X87cPfpo/lHI5+IAAIIIIAAAggg8IZA3NUouK0Obrj0w0VIF9J1hH87EK8AsSCAAAIIIIAAAgiUI+Bqej9B1EmH9W0tpAvpQvrJ4vz9Z4/LjUY+GQEEEEAAAQQQQOANgajLBLj1AQ6b9tkI6UK6TvBkce4q+ptx0RcIIIAAAggggEBRAlGXCaLtB1FtvL6NhXQhvftO0FX0ouOwD0cAAQQQQAABBG4QcDV9fYATbttnI6QL6d2H9LNXL24MDL6BAAIIIIAAAgggUI6Aq+ntB1EnG9a3sZAupHcd0j/46dNyo49PRgABBBBAAAEEEFhLwNX09SFOwG2bjZAupHcd0l1FXzsu+gECCCCAAAIIIFCUgKvpbQdRJxrWt6+QLqR3G9JdRS867vpwBBBAAAEEEEDgVgKupq8PckJuu2yEdCG925DuKvqt46JfQAABBBBAAAEEihJwNb3dIOokw/q2FdKF9C5Duhndi463PhwBBBBAAAEEENiagKvp68OcoNsmGyFdSO8ypMdZWQsCCCCAAAIIIIBAfgKuprcZRJ1gWN+uQrqQ3l1IdxU9/2BsCxFAAAEEEEAAgcsE7j591F3NKsSuD7GtsxHShfTuOjxX0S8Peb5GAAEEEEAAAQTyE/jsxXF3NWvrQdT+rT8JIaQL6V11eHEW1oIAAggggAACCCBQH4H3vvuwq7pViF0fYltnI6QL6V11dnEW1oIAAggggAACCCBQHwFX0/sNra2H8uv7J6QL6d2E9Dj7akEAAQQQQAABBBCok8DLP38/f/fbB93UrteDm3/3c5JCSBfSu+noPvr58zpHJFuNAAIIIIAAAggg8JpA1HPCaj9htde2FtKF9C46ujjrGmdfLQgggAACCCCAAAL1Ejh79aKL2rXXcGq//zoBI6QL6V10dB/89Gm9o5EtRwABBBBAAAEEEHhDIOo6Yc7V9JYdENKF9C46uTjrakEAAQQQQAABBBCon0C8TrflgGbfnIAQ0oX05ju59589rn80sgcIIIAAAggggAACbwjEa3WFWWG2VQeEdCG9+Q7uy1+/edOh+wIBBBBAAAEEEECgfgJexyagtxrQY7+EdCG96ZDutWv1D8L2AAEEEEAAAQQQWEXA69gE9VaDupAupDcd0r12bdWQ5nsIIIAAAggggED9BB6eHTVdx7YaQO3X7SdXhHQhvenOzYRx9Q/A9gABBBBAAAEEEFhFwOvYbg97AnGdjIR0Ib3ZkH7/x49X9ee+hwACCCCAAAIIINAIgZggWBCtM4hqt/XtJqQL6c12bCaMa2T0tRsIIIAAAggggMAaAiaQWx/0hOB62QjpQnqTId2EcWtGMt9GAAEEEEAAAQQaI2ACuXrDqBMJq9tOSBfSmwzpMZGIBQEEEEAAAQQQQKB9Ah/89GmT9awAuzrA9sBFSBfSm+zUTBjX/oBsDxFAAAEEEEAAgSDwwx/Pm6xnewij9nH1iQghXUhvrlO7+/SREQsBBBBAAAEEEECgIwLxqKPAtzrw4VIfFyFdSG+uQ/vkl686GpLsKgIIIIAAAggggEDUf8JofWFUm61uMyFdSG+uQ3v55+9GKgQQQAABBBBAAIGOCHhn+uqwJwTXyUVIF9KbCunejd7RaGxXEUAAAQQQQACBSwTikUehtM5Qqt2utpuQLqQ31ZnFuzItCCCAAAIIIIAAAv0RcMv71aAn+NbLQ0gX0psK6W51zzkgf/3bs/O5/seBPA7ErYdztXvpNzr0tK95DLt9S3pqlzn3da7jurbPiRnGLWUJRA0gmNYbTLXdRdsJ6UJ6M52ZW93LDoyrPv2jnz8/f/fbB7M7Fu9LFdZXtcg834vC+v1nj2dv97jNMT57ziWK8l72dU6u+35WKQfDhV4cVExfFNOXWcQM41/++s2+Cvv7PQhEPXi5TXy92lVccnMR0oX0Zjoyt7rvMaKN/KcRkEsEl8sDThRKrmqM3LBbrC6Ow8vtUOLrufqCKMRLnIS6zHSufd2i6dP8Sk8OZtjXyz76+qLoj5PFljIEHBcXHjom62UhpAvpxQvqsToQV07LDIarPvXh2VEKr+LKqmU+AnFSZKzjed/1TH01M24tLh3Ql4xctbtwPNp9yaX0f3tysDTrrJ/v2Lw4Nuf8yi3v9QbTrMdyie0S0oX0NAXNPgeAW93nHP42f1aEl33acuy/daVxc3uN+dPSd09cdifupJhyiatklz+v5NdxsiCOO8t58Tt4LnsQx8OUSyYHL++3ry8C0tT90JR+1b7uTOORY+LimMBiexZCupCeptDc58AVxPIMp/Ec+j5tOfbfTl0o5yFfdksyXrmY8nGHLFfRl8eLu0bOX5+oWPLI8t8pT55k2UfbsbnonvqOirI9f95PN8v7Zi8dt/n5COlCeqpANbTTcKt7noEy44Qteei0uyWZbjNe9iNTFceZbutf7mv8Nx4z6XnpycGM+3rZRV9fBIA4cW2Zn0C2u/ocExfHBBbbsRDShfTqQ7orpfMPfps+MeMtZpu218/GIZAxNEwV0jPu67Lo6fkZ2Izt0qODSxf9969CXEgfZ4wZspa4w4iH2wVCnPJxEtKF9Oo7sLilyZKHgJCepy3m3BIBKccA3/Pz6RzM4aBi/2o7COlzjkRXPyvb43eOjavHBh6beQjpQnr1IX3KZ/6udvf+tQ0BIX0bSu39joC0ebCdsxjp9e4iDuZxcE7fs3+WkF5uvMv6aFJ2Z21fjr5USBfSqw7pZk4tN/it+2QhfR2Ztr8vIOUY1JfFVY/BgIO5HFy62Pt/ezwWM412USf27qD9r7NvFNKF9Ko7r94nSso0EC63RUhfkujrvwJSviIg2qSnhYP5HBQOFudCetleyKsK9Qu19kNCupBedUjveZKkssPe+k8X0tezafknAlK+QiieT+/pzRcczOdgrcXxmNstpJcd+aJOHLM9rUs/M5cDQrqQXnXnVbbr9+mrCAjpq6i0/z0BKWfhEsdjLwsHczo4V0Gb9XOE9LI9UJyozOqG7dJnbXJASBfSq+28eio+yw5xu326kL4br1Z+W0DKW2z0EhI4mNfBTYVo6z/r5fjLPJZ5FZu+ocZ+RkgX0qsN6V69lnNIFNJztsvUWyUg5S6CYpbj1hcO5nawxiJ5jG0W0sv3PNEGY7Sldehj5nRASBfSq+24eig6yw9tu2+BkL47sxb+QkDKXbzEDMetP5/OwdwOzlncZvosIb38CJexb8jkqG3J2XcK6UJ6lSE9JkSy5CQgpOdsl6m3KmMRFNs0xZJxX7cpsu7/+PEUONKsM2O7cDBn8bvN8TLW7wjpObqIsdrTehzTczkgpAvpVYb01ovNHEPasK0Q0odxq/2vBKQ6CpeWHxPiYB0OzlXgZvkcIT3H6JaxNsniqO3I2XcK6UJ6lSG95UIzx3A2fCsyDoTD98ZfbktAQMo5yK8qvlp9VIiD9Ti4ystWvyekbzuKTPt70Q6tOma/2uz7hHQhvcpOq9Uic9ohap61C+nzcM72KQJSPUVCq8+nc7AeB3sKFUJ6jtEqY//Q03FgX3fvn4V0Ib26kO559BwD3rqtENLXkWn7+xkLoNimKZaM+7prAdTiI0MZ24WDuxemu7qc/feF9Cl64WHrzO6K7dNfXHZASBfSqwvpEQIteQkI6XnbZsotE5DqKy4+e3E8pRKzr5uD9Tl4uSBt9WshffauYO0HZqxPWvXefu3fHwvpQnp1Id2At3b8SfGDjINgCjCNb4SAtP+APHdRE3cltfToEAfrc3Bu50t8npolz+D38Oyoupq3hLM+M0dfKqQL6dV1WFGIWfISENLzts2UWyYg5RjUdy2u7j591Mz70zlYp4O7Olvb7wvpU448u637y1+/qa7mrc132ztePyykC+nVdVi7dcl+e24CQvrcxHN8noA03qBRwIIAACAASURBVMA8d5HzwU+f5pBoz63gYL0Ozu38nJ8npO95YI/45y///L26mndOV31Wrj5USBfSq+qw4qqPJTcBIT13+0y1dQJSrsF912KrhefTOVi3g7s6W8vvC+lTjTrD1htvt6jFHdvZd58mpAvpVXVWrVzxGTa01PFXQnod7TT2VgpIdRcTLTyfzsG6HWw1kAjpY482+60v3mzRqmv2q60+UEgX0qvqrD755av9emd/PTkBIX1yxCk/QECqvzio/U4lDtbvYIshQ0jPNWRFe7TomX1qr/8T0oX0qjqrKMIsuQkI6bnbZ6qtE5DaKBBi9uNaFw624WBrYUNIz9WjZOwnWnPe/ozTFwvpQnpVIT1XV29rVhEQ0ldRaf97GQuf2KYploz7OmZRFDMg17hkbBcOjlOsjun33OsS0nP1JiaPc0zO3QcM/TwhXUivJqTXfitmrmFquq0R0qdjm3nNAlI7hU88n3726kVm3VZuGwfbcXBoUZvx74T0lYdr0W+aPE5fkbGvuL5NQrqQXk1IN2lc0TFt6w8X0rdG1dQvCkhtFT01nhTlYFsOXi9Ya/13eGnJRcDkcfqKGvoTIV1IryakOxuda5BbtzVC+joybX9fQGqv6Knt+XQOtudgDYX0pm2MK7aWfASintzUbn6mL8nggJAupFfTUTkbnW+gW7VFQvoqKu1/T0Bqs6ip6fl0DrbpYIZieeg21HT8tD9KXexhtMvQNvV3+pm5HBDShfRqOqqY7MOSn4CQnr+NpthCAanNwiWeT6+l7+Vgmw7OVRCP/Tm13YkyxbiQdZ0//PG8mtp3bC+tr55+UkgX0qvoqKJQtNRBQEivo53G3koBqZ6Bf9ciLY7pGhYOtuvgrs6W/P2Yz8EV9Pw9RklHfLa+ahsHhHQhvYqQXkuRmH9Ymn4LhfTpGWf8BAGp7aKjhjlBOFjWwZjcNdqg5//V+FaEjOPJHNsUJ1O2CUp+p2y/0jN/IV1Ir6KTMrP7HEPWOJ8hpI/Dsba1CEjtFzLRxpkXDpZ1sIYTOZn9tW3zEjDDe9n+oufwve2+C+lCehUh3eA/7+C1z6cJ6fvQq/dvBaT2C57sz6dzsKyDxul6++8etzx83TYs+b2yfUuv/IV0Ib2KTir7FZweB7h1+yykryPT9vcFpD6KmDi+sy4cLOugkJ71yLBdqwh89uK4ivq314BqvxfnQrqQXkUnFTNxWuogIKTX0U5jb6WAVDYgzVnQZA1jHCzrYFYvxu7rrK8NAhn7izn7cZ9Vtr/chr+QLqRXEdLbGBL62AshvY92vr6XGQue2KYploz7us2AP+bvZDxxmrFdenJQSJ+it7HOqQjEqyXH7BOtK3/ora2NhHQhPX0n9d53H07VR1vvBASE9AmgVrBKAamvAiX65WzvT+dgWQeF9Ao6apt4hUBtoc32lu3j5uYvpAvp6UN65mcgr/T2/vGagJDepwgCUl/FQxQrMTtypoWDZR0U0jMdDbZlGwIZ65W5g6DPK9tvbuIvpAvp6UO6169tM9Tk+Z2Mg14eOu1uiYCUd6DfVATs+7NPfvkqjdQcLOugkJ7mULAhWxLIWK/s2yf7+7L94Jj8hXQhPX1IN/BvOdok+bWMg14SNE1vhoDUTmGwa5GR5fl0DpZ10FjddBff5M6Fs7v2d36/bD/TE38hXUhP30HFazIs9RAQ0utpqzG3VEDqt3DJ8nw6B8s6KKSP2aNa1xwEhPSyfUZPgXvIvgrpQnr6kB6Fl6UeAkJ6PW015pYKSH0XOxkeS+JgWQeF9DF7VOuag0DGPmNImPM3Zfu+qfgL6UK6kD7HSNDRZwjpHTX2pV3NWOzENk2xZNzXqYqEXdZb+q6njO3Sk4NC+hS9jXVOSSBjn7FLn+t32wzny3YV0oX09CF9yg7auscnIKSPz7SGNWYsdnoKSMtBveR/3/32wXnJ59M5WLZgFdJr6Klt42UCZ69epK+BS/bpPrtsnyqkC+npO6jLHaqv8xMQ0vO30RRbKCCVHcyzFFN3nz4q9v50DpZ1UEifome1zqkJZOk7bUfZ/isjfyFdSE8d0mNCIktdBIT0utprrK0VkBQYyyKn1PPpHCzroJA+Vm9qPXMSWPZb/lu2/8D/Jn8hXUhPHdIj8FnqIiCk19VeY22tgHRzgO256CjxfDoHyzoopI/Vm1rPnAQy1iw9jx32/aIfF9KFdCF9ztGgg8/KOOB1gL34LgpIFwOrImNxHs+nx/Oecy4cLOugkD6n7T5rLAIZaxZjSNm+LAt/IV1ITx3SS902OVbn3+N6Mg54PbbD3PssICkqrhc28Xz6nAsHyzoopM9pu88ai0DGmuV6X+rfZfu2UvyFdCE9dUg36I81DM23nowD3nx73+8nCUh9FhG3FS8Pz45mOyg4WNZB4/VsqvugEQlEH3VbP+bnZfuWXvkL6UJ66s7JoD/iSDTTqoT0mUAn+xgBSRGzrpD68tdvZrGVg2UdNF7PorkPGZlAeLuu7/L9sn1K7/yFdCE9dedk0B95NJphdUL6DJATfoSApJhZV1DN9Xw6B8s6aLxO2DHbpFsJCOll+41144bvL86FdCE9dUiPostSFwEhva72GmtrBSSFzqaiao7n0zlY1kEhfaze1HrmJCCkl+03No0bvf9MSBfShfQ5R4MOPktI76CRV+yigKTQua2gmvr5dA6WdVBIX9Ex+lZ6Ahn7jdv6Uj8v29fNxV9IF9KF9PRDSF0bKKTX1V5jbW3GQie2aYol477OVTTs+zlTtUm0c8Z2mWp/M+5r9P0R1Hv932cvjl87OEWfY53TEch4LO3bz/r7NkK8kC6kC+nT9f1drllI77LZBSRjyVZjSTyf/vLP3yc5SDIW2z2FdMHgr2Dw3ncfnkdgt9RBIGO/4VhqI2Tv245CusJqq8JqX9GG/v0Pfzyvo5e3lW8ICOlvUHT1RcZCR0DKWehEHzHFwsGc7T10/K/97z746dMpNLfOkQlk7Ddqd9/2j9MXC+lCeuqQPnJfbHUzEBDSZ4Cc8CMyFjpC+jiFwhQF1xTPL3Mwb3tP4VAN6/zkl68S9tY26TKBjP1GDW7bxun7WyFdSBfSL/fWvt6bgJC+N8IqV5Cx0BHSpy8i9inUxm4fDuZu731cqfVv4/EOS24CZ69epK6Da3Xfdu/fHwvpQnrqzil3127rVhEQ0ldRaf97AtL+A3JvRc3Yz6dzkIMZj6GxT0a1P5rMv4cZvbFN+jMhXUgX0ucfD5r+RCG96eZdu3MCUtmCIl5vFhNW1VbYRX8x1sLBsg7W5t5c2zvFox1jHTPW8xeBuVzwOfqoXRwQ0oX01EWdAaQ+AkJ6fW02xhYLSGWLjwgCGdtgm4JkrOd2M+5/bNMUS8Z93aate/wdIX2KI2DcdfbopX0uO2Zvw19IF9KF9HH7+u7XJqT3qUDG0NBTQFoGgfjvNoN/tt8Z400eHMxfdGbzbo7tWR6bfY4Mdez1HB74DP3Trg4I6UJ66oKuju7dVl4mIKRfptHP1wJS2QLkchDIeAzeVpzErfr7vj+dg2UdvK2Ne/355WOznxGhrj3t1U37nbvPFNKFdCG9rrEk/dZmDAjpoTWwgQJS2cH+chCIsBuTstVWgN3/8eO9jgQOlnWwNt/m2t7Lx+ZegvvjyQjM5YLP0Uft4oCQLqSnLuQm65GteDICQvpkaFOvWEAqW3xcDwIZ22Ob4mSf59Mz7nNs0xRLxn3dpn17/J3rx+YUPljnfgR69NI+lx2zt+EvpAvpQvp+fbu/vkZASL8GpJN/ZgwNPQWkVUEgvrdNIZDtd4Y+n87B/EVnNtfm2J5Vx2Ynw0I1uzmHBz5D/7SrA0K6kJ66iKumh7ehbwgI6W9QdPWFgFS2AFkXBO4+fZS6j19VtAx9Pp2DZR1c1Za+tzhfd2x2NUAk31me6jsyOiCkC+mpC7jk/brNW0FASF8BpYNvCUhli5x1QeDs1Ysqn0//4KdPdz5qOFjWwYxFboZtWnds7iy4P5iMQAZPbIP+67oDQrqQLqRP1u33uWIhvc92F5DKFhibgsCXv36Tup+/Xpgs//3Zi+OdDiYOlnVw2W7+e7UdNh2bOwnulycjwNmrzuKRg4eQLqSnLt4m65GteDICQvpkaFOvWEAqO6jfFgQenh2l7utXFYUxQ/0uz6dzsKyDq9rQ99zunnrg+nvjeKrvyOiAkC6kpy7caujcbeNVAkL6VR69/EtAKlvk3BbSw8Man0+Pbd72/ekcLOtgxiI3wzZtc2z2Mk5k3c8MntgG/dd1B4R0IV1IzzpqVLpdQnqlDbfnZgtIZQuMbYJA68+nc7Csg9cLTP/+qz22OTb37H79+Z4EuKrvyOiAkC6kC+l7du7+/CoBIf0qj17+JSCVLXK2DQItP5/OwbIOZixyM2zTtsdmL2NFtv2Mk5cZPLEN+q/rDgjpQnrqzilbZ257bicgpN/OqMXfEJDKFhi7BIGYOf16MZD93/F8ehTTmxYOlnUwu0Oltm+XY3OT3342DYGM/UYpV31urj5USBfSUxdr0Xla6iIgpNfVXmNtbcZCZ6r+I+O+7hIE4hnvWp9P3+RrxnbpyUEF/uoCf5djc5PffjYNgYz9hmNp9bHUGxchXUgX0qfp97tdq5DeZ9NnLHR6Cki7BoGYNT2uTtdW9MQs9esWDipsM/q867G5zm/fn4ZAxn4jo8e2af7+VUgX0lMXaVMV2dN09dYaBIT0Pj3IWOhM1X9k3NchQSDeQ15j4RXP1a9aMrZLTw7W6NIc2zzk2Fzlt+9NQyBjvzGHlz5j/tC9K3MhXUhPXaRNVeBM09VbaxAQ0vv0IGOhM1X/kXFfhwaBlp5Pz9guPTm4awHay+8PPTb7HEnm3+uM/UYvx4b93HyiQEgX0oX0+ceEpj9RSG+6edfuXMZCp6eANDQItPR8Ogc3F3wK4jJ8hh6baztbPxiVQLSPY6PMsYH7Zu5CupCeunMyuI06Fs2yMiF9FszpPkRA2jzYTl2M7NNXxvPpU2/fFOu/vs8cLOvgFG3cwjqve5qu8+58g6J9WvDMPrTX/wnpQnrqzsngVt/oKaTX12ZjbLGAVLZA2Lev/OSXr1KPBesK0PBuuXCwrIPr2qj37+97bC799t9pCAjp+o2sfZSQLqSnLswMbtMMSlOuVUifkm7edQtIZQudMfrK+z9+nHo8WFVIxQz1cct+LBws6+Cq9vG9xfkYx2benr/+LYs3RvBU35HRASFdSE/dOcWkRpa6CAjpdbXXWFsrIJUtcsYIAhF23/vuw9RjwqpCKvqcWDhY1sFVbeN7QvpYY8xU68lYszhu9GXhgJAupKcuyJbF11Sds/WOTyDjgDf+XlrjdQICUtmiYoyQHm1a8/PpHCzroGCxmv9Yx+b1Pte/xyGQsWZxLK0+lnrjIqQL6UL6OP28tfxNIOOAp3GmJyAglS0qxgwCtT6fHgyyFXFxXEyxZDzesrHPsj1xPFnyErj79FG6fiOLu7aj7LgupAvpqTunuPXSUhcBIb2u9hprazOGhp4C0pghPZyo8fn0jAVlTw5m5J9hm+LuFEteAhkcsQ1lw3BW/kK6kJ46pMeBY6mLgJBeV3uNtbVCetkiY+yQHs+nx6RsWYuXWrZLSC97XJT2xIWGsUaY6dZT2hGf33cfsan9hXQhPX0RNl3XbM1TEBDSp6Caf51CetlCY+yQHsZlbNNNBU3GnwnpZY+L0k58+es3+Tvvjrfw7NWL9DVwaYd9frk+TEgX0tN3UFMVOR2PS5PuupA+Kd60K88Y6KbqOzLu6xQhPWSL9SrShhdpPTnIk6uefPbiOG1/bcP+IpCxL3ccXT2OeuYhpAvp6QuwqYocg9Q0BIT0abhmX2vGYmeqviPjvk4V0sO7jMd0LYVbTw7W0iZTb2ccL1O1e/ZxoLbtizsdpvbB+oXuoQ4I6UJ6+g7KzKh1DXsZC/q6CNa5tRmD61SFcsZ9nTKkez59eJHZk4Mf/PTp63Aa+9zr/+JYsdRDwJ1Cw/u2ocHT323PXEgX0tOH9CmLz3qGknq2VEivp63G3NKMwbWngDR1P5mxfWso9jg4Zi9jXQiMS0BI3z4w1tDftraNQrqQnj6kx9l5Sz0EhPR62mrMLc0Y4gSkMVvY8+lDCkAOjuugtSEwJoGM9cqQfsbftHmyQUgX0tOH9OhELfUQyDjo1UOv3i0V0ssWCVNfSV+aeffpo/RjRqaCVUhfmuO/COQjkLFeydR/2Zay47qQLqSnL7i8ZzTfwLZpizIOepu218/GISCklx3M5wrp8coi70/fvq2F9HH6F2tBYAoCQuj2fRlW87MS0oX09CE9OgZLPQSE9HraaswtFdLnH8AvF01zhfRwxozI27e1kD5mL2NdCIxHICb5u9yH+nr7fg2reVgJ6UJ6FZ3UD388H69ntqZJCQjpk+JNu3IhfZ5Be11xNGdIDwkfnh1VMXas4zXX94X0tF2WDeucQMYxa65+yeeUHa+35S+kC+lVFFpTFTqdj1GT7L6QPgnW9CvNWPBM1W9k3Ne5Q3oI6fn02ws9DqbvumxgpwQ+e3FcRf27baDze7f3x7UxEtKF9Co6qRIFaKfj1t67LaTvjbDKFWQMrgLStCp5Pv32opCD0zpo7QgMJRB1ZW2hzfbe3ue2xEhIF9Kr6KS8hm3oMDT/3wnp8zPP8IlCetniodSJTFejNre7kJ6hd7INCNwkkLFWaSlg2pfNY8M2fIR0Ib2KkB6dqaUOAhkHvjrI1b2VQvr+A/I2g/a63ykV0sPaOIm6brt6/76QXne/ZuvbJeBxnbJjVu9jwzb7L6QL6VUUV/HKH0sdBIT0Otpp7K0U0ssWPCVDesySrOBd3f5C+tg9jfUhMA6BbUKS31ndr+EyDxchXUivIqRHhxCFoCU/ASE9fxtNsYVC+jyD9rriqGRID5/iDRzen37TASF9it7GOhHYj0D0V+v6Ut+/2Y9hUoaJkC6kV9NRTVXs7NfV++vrBIT060T6+LeQXmYQXxZPpUN6WO759JsOTDVuZTzeMjjYR29rL/cloK+62VctxxL/zcNGSBfSqwnpn/zy1b79sr+fgYCQPgPkhB+RMTQISPOL4vn0qwUeB+d30CcicBuBOKEkjF7tq/DIx0NIF9Kr6ajM8H7bsJPj50J6jnaYeyuE9LIDfJarmPFY0nvffVjNuDJ1YSqkz90T+TwEbieQsU6Zui+y/rJj9BD+QrqQXk0xFRMTWfITyDj45adW/xYK6WULgCwhPUz2vOeFC0J6/X2bPWiPgPkzLvqoIeHR38zDT0gX0qsJ6dEpWPITENLzt9EUWyikzzNoryuOMoX08CseT1q3rT19X0iforexTgSGEzh79ULfJPtU4YCQTtQqRF0WdXGFxpKbgJCeu32m2johXUi/7tb9Hz+uanxZjjNj/ldIv26FfyNQlsCXv37Tfb80Zh9nXdON/UK6kF5VZxUzclpyExDSc7fPVFsnpE83UG9TBGW7kh6eeT59cS6kT9XjWC8CwwhEX7lNn+p3yo5p+C/OhXQhvarO6uHZ0bBe2V/NRkBInw11qg8S0ssWNBlDegja+/PpQnqqbsrGIHCesUYRSMuOn1n5C+lCelUh3eRx+UfYjANgfmr1b6GQXrbIyBrSw+yen08X0uvv2+xBWwRMGld2rMoaiDNul5AupFcV0uMgsuQmIKTnbp+ptk5IL1v4ZA7p4VzGfmGOokxIn6rHsV4EdifQ+509c/R5PmO8WkBIF9KrC+lTFT27d/f+YhWBjMX4qu30vXEJCOnjDcxDipzsIT2eT+/xCtZU41XG4y27g+P2eNZWI4Ge7+oZMq74m7LjupAupFcX0hUCuYfGjCE9nOn5f1GYTP1mhIyhQUDK1VdkdGTqIrQnB6Pv77mfjX2PmcPjhJQlJ4EPfvq0upp36j7K+ssG8U38hXQhvboOK17rY8lLIGNI39QJ9vSzaJupwnrGANZTQIqAUMMS29nTMdeTgz2166Z9jTtGajkea+gzxtzG9777sKv+Z5OnfpY3nC/bRkgX0qvrsGIAtOQlIKTn7vjj+JkiqAvpZdu9plDQUx8hpJc9LpbFbon/xlVbSx4CZ69eVFfvlvDWZ+bps4R0Ib3KTmuKkJFnKKl7S3oqwGsdzCKoj31LppBedmCvKaT39Hy6kF72uCjdR9d0XNZdedy+9Z+9OK6y3i3tsM8v14cJ6UJ6lZ1WdLaWnASE9HId+i6D6djFo5Bett3Hbs+pe5eMvuxy/Gz7u0J62eNi23aa6vfc+Td1T7L9+j2P3vexONUxPuV6hXQhvcqQ7jay7QemuX9TSK9jILz79NGoamQMXT0FpNpCesj38OyoyvFnl6KsJwd34dLT707lwKgdeAcr8zx6HbVJT33DbfsqpAvpVRZJ0dlachIQ0usZCMc0SEgv2+41hvTwL04W3Vao1PzzqQJaxuOt5naacttrPTbHHB9Kr8vz6GXHpymPr5bXLaQL6dUWSJ5LLz3srf58Ib2ewXB1Cw77bsbQ0FNAqjUIRPEctwS3Wmj15GCrbbjvftV6bA4bCXL+lefR66lL9j3eWvp7IV1Ir7Y4inc/W/IRENLrGQzHtEdIL9vuNQeBeLd0S4XV5X0R0sseF5fbotTXNR+bY44RJdcVr+4t1f4+Vx8w1AEhXUivtuPyvvSSQ976zxbS6xmQ1rfi7j8R0su2e+1BoNXn04X0ssfF0OJ4zL+r/djcfTTI9xct360zpqvWlau/EtKF9GpDullT8w2EsUVCeq5OftOgO6ZBQnrZdm8hCLT4fLqQXva42NT/zfWzFo7NMceKudeVcWyayz2fU3f/I6QL6dWG9Oh8piqA5h5EWvo8Ib2eQWFM7zIWQlP1Dxn3tYUg0OLz6T05KBCs7vtbODbHHCvmXlerd+k43lYfby1xEdKF9KpDenS+llwEhPR6Bo4xzckYXHsKSK0EgdYmeOrJwZaK4zH3pZVjc8zxYs51tXiHzph+Wlfemk1IF9KrDuljv+t5zoGj1c8S0vN2+NcH4zEdFNLLtntLQeCDnz6tely6fJwJ6WWPi8ttUerrlo7NMceMOdbl1WuOv1LH/RifK6QL6dUXQ9EJW/IQENLrGRTHtEZIL9vuLQWBl3/+3sz704X0ssfFGIXyvuto6dgcc8yYY13xFqB928/fO4ZLOSCkC+nVd2Bxe6QlDwEhvZ4BbUxrhPSy7d5aEPjhj+dNvD9dSC97XJQqri9/bmvH5pjjxtTr8uo1x9/lY7G2r4V0Ib36kO5VbFMPc7utX0ivZ1DcrWU3/7aQXrbdWwwCLTyfLqSXPS4yFOUtHpubR4McP407cjK0v23QBwx1QEgX0pvoxHIMCbYiCAjp9QxIYxorpJdt91aDQO3PpwvpZY+LocXxmH/X6rE55vgxxbpaOMk3pofWVV9fJKQL6U2E9C9//WaKPt46BxAQ0usZCAY079o/EdLLtnurQSCuhr333YfVjlNCetnjIkMwafXYXDsYJPmBW90dexmO/322QUgX0qstfi6LH1dbLDkICOn1DIxjGiOkl233loNAPJ9+ub+v6WshvexxkcGVlo/NMceQMdflVnfHXYZjf99tENKF9GqLn8vyv/vtgzH7d+vag4CQXs/guEcz3/hTIb1su7ceBGqdpVlIL3tcXK4TSn3d+rF5YzBI8A23ujvuSh3vY36ukC6kNxHS46Bwy3uCkdEz6VUdT2MaI6SXLYp6CAI13r4qpJc9LsYsmIeuq4djc8yxZIx11dhXDPXL37XbxwjpQnpVoWJTZ+SW9zGGtv3X4Up6PQPG/q19sQYhvWy79xAEanw+XUgve1xsqhnm+lkPx+bFSFD+K7e6O+bmOran/hwhXUhvJqS75b384BhbIKTXM0COaYyQXrbdewkCtT2fLqSXPS6mLqK3WX8vx+aY48k+63Kru2Num+Oyht8R0oX0ZkJ6HHBued9naBvnb4X0egbIcVr8r7UI6WXbvacgEPtaQ4EV2yiklz0uMnjS07E55pgydF13nz6qpn/I4KdtyNtHCelCelOdmVvehw5r4/2dkJ63w78+GI/X6uevw8j19Zf+d08BqbcgUEs/05ODpY/3rJ/f27E55riy67rOXr1oqqbN6rTtmqfOE9KF9KY6NLe87zqkjf/7tRTPBpnFqI3vSvo8g/Y6b3sLAvHcafT363hk+b6QXva4yOBBb8fmqAPLjisL1hna3DY47sdwQEgX0pvr0OJ5JEs5AkJ6PYPTmJYI6WXbvccgkNG564WZkF72uLjeHiX+3eOxOebYssu63vvuw+Zq2hLO+swc/ZaQLqQ316HFqzcs5QgI6Tk6920G2TEtyRiYegpIvQaB7FfOenJwmz6nx9/p9dgcc3zZZl0Zx6AefbfP49WAQrqQ3lxIjw4iboW0lCEgpI/XQU892I1pSMYCqaeA1HMQyNzn9OTg1P1Vrevv+dgcc4y5bV0xJ1GtjtjueuqmOdtKSBfSm+zUPvnlq9v6cz+fiEDmgnnOzrWGzxpTASG9bJHRcxDI/Hy6kF72uMjQD/d8bI45xmxal3ejO84yHOtjb4OQLqQ3GdLjFRyWMgTicYOxOyrrm2YAHtOQnkJ6xhmEew8C8frNjP3EVCG9tvfFZ2ybubbJRYMxR5rV6wrGc7Wnz5mmHsH1JlchXUhvtmOLIsYyPwGD5c2ONuPgM/bcDRmvZESYnmrJNrO4/u78/OHZUbrxbMpHr7I5mLGfy7BNjs2peuGL9Zowro66I8PxWNM2COlCerqiZqwDyDvTLwawOb/KeJVxLKdaWs8Ub0HI9ExgPHYx5RJXrrP4EAWq5S8CcRdVlnaZ2sFMx1sW5tm2w7E5fc+U8S6ubB7anjpPYgjpQnqagmbsTiSuMkx5FWP6oafeT8gUYMb2qoX1TRUe4gRNhqt7sQ1TX72KviXDvoaPU91SXWMPxME6i9EW+tVV++DYu0q5fQAAIABJREFUnL4XcbLKMb/q2Gvhe0K6kN5sSI8DdIqrhdMPOW18goEz58AZVxqnPHkV4bhkeI3Pnuu4L72v+rjVfWXpdpnjJNFyz0vvawuF8FT7MFc/tHShx/+6cy9nnTHVMdXbeoV0Ib3pkG4CubLDdkzmZLb3HINo3HY51+RiUTjFSZo5w3p8VnxmfPacS5zwCK5z7msUKjGnQAQ0y2oC0S7xjPqc7VLSwbmPt96K5V3217G5+pic4rvu2stRX+xyfPjd7dtMSBfSmw7p0RkoZKcYGndfZ9z2539lGEx55fw2EyI0T93ucwfzdfs8x77qz9bRX//9OdqlJwenPp5rXb9jc/0xONVP5jwJJ1xuHy6xGoeVkC6kNx/S4wqDBQEEEEAAAQQQQKANAvE4gTA4ThjEMSdHIV1I76KTK3klsY3h0F4ggAACCCCAAAI5CGR6k4OQmzPk1t4uQrqQ3kVIn+tZ3BxDl61AAAEEEEAAAQTaJBCPRNQewGy/YH+bA0K6kN5FR+ddpW0O1PYKAQQQQAABBPoiYEJaAfe2gNvCz4V0Ib2LkB4Hq9eh9DWI21sEEEAAAQQQaItATNLYQgCzD0403OaAkC6kd9PZxZlXCwIIIIAAAggggECdBGIy4NvCjZ8LwC04IKQL6V11dvEckwUBBBBAAAEEEECgLgKuogvfLYTvbfdBSBfSuwrpXsdW14BsaxFAAAEEEEAAgSDgKrqQvm3AbeH3hHQhvauQHgdtnIm1IIAAAggggAACCNRBwFV0Ab2F4L3LPgjpQnp3Id3V9DoGZFuJAAIIIIAAAggEgXiV7i4Bx+8K9bU7IKQL6V12eq6mG/QRQAABBBBAAIH8BF7++fv5u98+6LJerT1o2v7hJ0uEdCG9y04vzshaEEAAAQQQQAABBHITcBV9eNATkutlJ6QL6V2G9DgjG2dmLQgggAACCCCAAAI5CbiKXm/IdIJgv7YT0oX0LkN6dByupucckG0VAggggAACCCAQBB6eHXVbpwq5+4Xc2vkJ6UJ6t52fq+kKAAQQQAABBBBAICcBM7r3HVJrD9n7br+QLqR3G9Lj4HE1PefAbKsQQAABBBBAoG8C3osupO8bdGv+eyFdSO86pLua3ncBYO8RQAABBBBAIB8BV9EF9JoD9hjbLqQL6V2H9DiIXE3PNzjbIgQQQAABBBDol4Cr6EL6GEG35nUI6UJ69yHd1fR+iwB7jgACCCCAAAK5CHz927Pua9Oaw6VtH+cEi5AupOsIXU3PNTrbGgQQQAABBBDolsD7zx6rTeWT7h0Q0h0E3R8EyzN+8fyTBQEEEEAAAQQQQKAMAVfRx7kKu6xt/bdenkK6kC6k/+1APP9kQQABBBBAAAEEEChD4L3vPlSXyiYcOFmcC+kOBAfCJQdcTS8zKPtUBBBAAAEEEOibwCe/fKUmvVSTugpe71XwMdpOSHcw6BAvORDPQVkQQAABBBBAAAEE5iPw8s/fz2Mi3zHCjXX0HW5baX8h/VJAa6VR7cd+nVM8D2VBAAEEEEAAAQQQmIfAw7MjAV0m4cAlB4T0SzCE2/3CbSv87j59NM+I5FMQQAABBBBAAIHOCcSjhq3UkPZDlhjLASFdSNcxrnDgsxfHnQ+Zdh8BBBBAAAEEEJiegFeuCbZjBduW1iOkrwhoLTWwfRnW8cXsovF8lAUBBBBAAAEEEEBgGgJf/vqNi0WyCAdWOCCkr4Ai2A4Ltq1x++jnz6cZkawVAQQQQAABBBDonEBcDPHKNTV3a/lhrP0R0oV0Z682OOCVbJ1XEHYfAQQQQAABBCYhEBdDxgo01iPst+aAkL4hoLXW2PZn9w7s/o8fTzIwWSkCCCCAAAIIINArgR/+eC6gyyAc2OCAkL4BjlC7e6htkZlXsvVaQthvBBBAAAEEEJiCgMni1NgtZoYx90lIF9KdxbrFgXheyoIAAggggAACCCCwP4F4g86YYca6BP4WHRDSbwloLTa6fdq9MzOJ3P6DsjUggAACCCCAQN8EYrK4d799IKTLHxy4xQEh/RZAAu3ugbZFZjGgmESu78LC3iOAAAIIIIDAfgRirp8W60T7JC+M7YCQLqTrLLd0IJ6fsiCAAAIIIIAAAgjsTiDm+Bk7yFifcNyqA0L6lgGtVQHs126d25e/frP7qOQvEEAAAQQQQACBjgl4J/pu9ab6HC8hXUh3VnMHB+K29xhoLAgggAACCCCAAALbEXh4dqTe3KHeFNKFdCHdAaPT3NGBGGgsCCCAAAIIIIAAArcTcJu7wOmkw+4OCOk7BjSS7S5Zi8y8O/32QdlvIIAAAggggEDfBNzmrm5uMQfMsU9CupDuSvoAB+Ld6W5777vwsPcIIIAAAgggsJmA29yF9DkCbYufIaQPCGgtimCfdu9E3fa+eWD2UwQQQAABBBDol4Db3HevLdXjmC0dENKFdFfS93DAbe/9Fh/2HAEEEEAAAQRWE3Cbu7C5DJv+O8wFIX2PgEa6YdK1xM1t76sHZ99FAAEEEEAAgX4JfPDTpy4CyRgc2MMBIX0PeC2FTfsy/ISD2977LULsOQIIIIAAAghcJfDlr98IZ/IFB/Z0QEjfE6BwOzzctsTObe9XB2j/QgABBBBAAIH+CMRt7u9++0BAky84sKcDQvqeAFsKmvZl+AmHGJDM9t5fMWKPEUAAAQQQQOCCwPvPHgtnsgUHRnBASB8BonA7PNy2xO7+jx9fjFK+QgABBBBAAAEEOiLwyS9fCWdyBQdGckBIHwlkS2HTvgw/6fDZi+OOhmO7igACCCCAAAIInJ//8Mdz4Uym4MCIDgjpI8IUboeH21bYxW3vZ69eGK8RQAABBBBAAIEuCMTjfnefPhLQZAoOjOiAkD4izFaCpv3Y72RDDFQWBBBAAAEEEECgBwJet7Zf3ajuxm+VA0K6kO6s1wQOfPTz5z2My/YRAQQQQAABBDomEI/5rQoYvid4cmA/B4T0CQIaKfeTshV+XsvWcdVi1xFAAAEEEGicQDyH7nVrat5W6vZs+yGkC+nOgE7kgNeyNV6d2D0EEEAAAQQ6JeA5dOE8W6htbXuE9IkCWmui2J9hnXG8L9SCAAIIIIAAAgi0RMBz6MPqQvU0bts6IKQL6a6kT+yA59NbKkvsCwIIIIAAAn0T8By6oLlt0PR7w10R0icOaOQcLmdL7L789Zu+R3R7jwACCCCAAALVE/Acurq2pfo8874I6UK6K+kzOOD96dXXJXYAAQQQQACBrgl4Dl1AzxxqW9s2IX2GgNaaNPZnWCft/eld1zZ2HgEEEEAAgaoJ3P/xYxd25AYOzOSAkD4TaMF2WLBtjVtMtGJBAAEEEEAAAQRqIhDz67RWk9kftXlmB4R0IV2nO7MDMeGKBQEEEEAAAQQQqIHA1789UyvOXCtmDo+2bZ6TG0K6g07HW8CBmHjFggACCCCAAAIIZCZw9urFecyrI5jNE8xwxnnpgJBeIKAt4ftvvweiieQylyS2DQEEEEAAAQRMFNdvnSqjlG97IV1Id3a0kAMxkVwMgBYEEEAAAQQQQCAbARPFlQ9qwnK/bSCkFwpoDrp+D7rLbW8iuWwlie1BAAEEEEAAARPFqVMv16u+nt8HIV1IdyW9sAMxEFoQQAABBBBAAIEMBGKCW6Fs/lCGOeaXHRDSCwe0y43h634PTjO+ZyhLbAMCCCCAAAJ9E4iJbU0U1289KovkaXshXUh3tjSBAzEgmvG978LI3iOAAAIIIFCSQMyTI6DnCWkCc99tIaQnCGgOwr4PwmX7m/G9ZGnisxFAAAEEEOiXgJnc1aLLetR/c7ggpAvprqQncsCM7/0WSPYcAQQQQACBUgRiIlvhLEc40w7aIRwQ0hMFNAelgzIciKBuQQABBBBAAAEE5iDw8OxIQJcHOJDMASE9WYMI6oJ6OODVbHOUJT4DAQQQQACBvgmYyV3dKXvkdEBIF9KdOUvqgKDed+Fk7xFAAAEEEJiSwNe/PVMDJq0BBeecwXnOdhHSHZw66MQOfPLLV1OOz9aNAAIIIIAAAh0S8Ko1IXDOwOmzdvdNSE8c0Ai9u9AtMvMO9Q6rJ7uMAAIIIIDARAS8ak192WK93No+CelCuivpFTggqE9UqVgtAggggAACHRHwqjUBvbUw2+r+COkVBLRW5bNf2w8U8Q71uDXNggACCCCAAAIIDCUQb5BRf21ff2GFVSkHhHQhXWddiQOC+tCSxN8hgAACCCCAgHehC5ylAqfP3d09Ib2SgEbu3eVukZmgrshCAAEEEEAAgV0JCOjqyBbr4pb3SUgX0l1Jr8wBQX3X0sTvI4AAAggg0C+BeFNMy2HGvjkB0aIDQnplAa1FCe3T7p2roN5vsWXPEUAAAQQQ2JZATDyrztq9zsIMs9IOCOlCus67Ugfe++7D85il1YIAAggggAACCFwnEBPOlg4aPl/Y5cAwB4T0SgMa4YcJ3xq3mKVVUL9elvg3AggggAACfROIgB533bVW99gf9W8vDgjpQroOvHIHBPW+CzF7jwACCCCAwGUCcfJeQBdmewmzre6nkF55QGtVTPu12+AiqF8uT3yNAAIIIIBAnwQioHsX+m41lJoTr4wOCOlCuivpjTggqPdZkNlrBBBAAAEEgoCALmxmDJu2aZiXQnojAc0BMOwAaI1bBPV4Ds2CAAIIIIAAAn0RuP/jxy68qOs50IgDQnojDdla2LQ/w086eD1bX0WZvUUAAQQQQOCDnz4VztT0HGjIASG9ocYUbIcH29bYCeoKNgQQQAABBPogIKCr/1qrY+3P4lxIF9KddWvUAUG9j+LMXiKAAAII9Evg4dmROq7ROk5Q7fvki5DuwNa5N+yAoN5v4WbPEUAAAQTaJvDZi2M1XMM1nJAupL91cHL4mAh9i6D9223/COoxkFsQQAABBBBAoA0CAnq7dZuaXNuGA66kOwPnLGwnDgjqbRRm9gIBBBBAoG8CAroQJ8i374CQ3klAczC3fzBv08aCet+Fnb1HAAEEEKibgICuntum3vM79XsipAvprqR35kDMAmtBAAEEEEAAgboICOj1By/hWRtu64CQ3llA21YMv9d2JyKo11WY2VoEEEAAgb4JfPnrNy6qqNk50JEDQnpHjS14tx28d23f9589Pn/55+99Vz32HgEEEEAAgeQEfvjj+XlMArvrOO/31X0cqNcBIV1I1+l37MDdp48E9eTFmc1DAAEEEOiXgIBeb8gSkLXdPg4I6R0HtH3E8bftdDzepd5v8WfPEUAAAQTyEhDQ26m11M3aclcHhHQh3ZV0Dry+jS6ed7MggAACCCCAQHkCArpQt2uo8/ttOSOkC2hCOgfeOOAVbeULM1uAAAIIINA3AQG9rbAlPGvPIQ4I6QLam4A2RCB/017HY+b3votDe48AAgggUI6AgN5eXaVW1qZDHBDShXQhnQM3HDDze7kCzScjgAACCPRJQEAX5oaEOX/TpjdCuoB2I6A52Ns82Hdt15j5PQoGCwIIIIAAAghMSyDmhfGaNfXXrrWa32/XGSFdSBfSObDWgSgYTCg3bWFm7QgggAACfROI+WCErXbDlrbVtkMcENIFNAMDB2514KOfP++7grL3CCCAAAIITEBAQBfghgQ4f9O+N0K6gHZrQNMRtN8RbNPG93/8+Pzln79PUKJYJQIIIIAAAv0RENDVV9vUX36nT0+EdCFdSOfA1g54Tr2/ItIeI4AAAgiMT0BA7zN4CdzafVsHhHQBbeuAtq1Ufq/tDshz6uMXa9aIAAIIINAPAQG97TpJHax9x3BASBfShXQODHLg4dlRPxWVPUUAAQQQQGAEAp/88tWgMXeMot86hEcO1OOAkC6gGSw4MNiBuP3dc+ojVG1WgQACCCDQPIEPfvp08HgrXNUTrrSVthrDASFdQDNgcGAvB+L2969/e9Z8cWUHEUAAAQQQGEpAQBfcxghu1tGPR0K6gLZXQNNZ9NNZ3NbWXtM2tHTzdwgggAACLRMQ0NVKt9VQfs6R6w4I6UK6kM6B0Rx4/9nj87NXL1qutewbAggggAACWxGIx8Hi9aXXi2//Fsg4wIHbHBDSBTSDBwdGdcDs71vVbn4JAQQQQKBhAhHQY96W2wpxPxfWOMCBVQ4I6QKaAYQDkzgQs7+bVK7hCtSuIYAAAgisJCCgC12rQpfv8WIXB4R0AW2SgLaLhH633U4rriL88MfzlUWMbyKAAAIIINAagRjzXEFvt65Rs2rbuRwQ0oV0IZ0DkzsQ74W1IIAAAggg0DKBCOjxyNdcRbzPERg50K4DQrqAZjDhwCwOmFSu5dLUviGAAAJ9ExDQ2w1LgrC2LeGAkC6gzRLQSsjtM/N1qiaV67uItfcIIIBAiwQ+e3GsllJPc4ADozogpBNqVKEE43zBOGObxCtpTCrXYqlqnxBAAIG+CAjo6p6MdZZtqt9LIV1IF9I5UMQBV9X7KmTtLQIIINAagXiLiTBUfxjShtowowNCuoBmgOFAUQdcVW+tbLU/CCCAQPsEPvjp06JjZ8ZQYZuEXQ6M54CQLqAZZDhQ3AFX1dsvaO0hAggg0AKBeFQrJkIVRsYLI1hiyYGbDgjpApqBhgNpHHBVvYUS1j4ggAACbRKIgO4d6DfDhICFCQfGd0BIF9DSBDQH+PgHeI1M46p6TMRjQQABBBBAIAuBeMXae999qGZSN3OAA7M4IKQTbRbRagyLtrnsSQPvVc9SmtoOBBBAoG8C3oFeth5Qj+HfowNCupAupHMgrQNxVf2jnz/vuzq09wgggAACxQh4xZqA2GNAtM/lvRfSBbS0AU0HUb6DyNIGcYvh1789K1ak+WAEEEAAgf4IfPLLV2okdTIHOFDEASGdeEXEyxL+bEddJwLilTcxcY8FAQQQQACBKQl4xVpd9YF6Tnu15oCQLqQL6RyoyoG4BT6ublgQQAABBBAYm4BXrAl7rYU9+1On00K6gFZVQNPR1NnRTNFu8Roct8CPXZ5aHwIIINAvAa9YU2NMUa9YJ6+GOCCkC+lCOgeqdsAt8P0W1PYcAQQQGIuAGdwFqSFByt/wZioHhHQBreqANtWBYb11dbpmgR+rTLUeBBBAoD8CX/76zXmMI8b+usZ+7aW9WnZASBfSDUocaMaBmAU+ii0LAggggAAC2xAwg7ug13LQs2/1+i2kC2jNBDQdUb0d0dht9/6zx+dx66IFAQQQQACBdQTM4K5uGLv+sD5OjeWAkC6kC+kcaNaBKMDOXr1YV5/5PgIIIIBAhwTM4C5IjRWkrIdLUzkgpAtozQa0qQ4a662rQ14+r+796h1W4nYZAQQQuEYg7rKKt4MYy+say7WX9urNASFdSDdQcaALB5Zh/Vq95p8IIIAAAp0QiNd2miBO2Ost7NnfOp0X0gW0LgKaDqrODmqKdovJ5T57cdxJSWo3EUAAAQSCQPT7U4wp1qm+4AAHpnBASBfSDVoc6NIBYV3hjgACCPRBwARxQtQUIco6eTWlA0K6gNZlQJvyoLLuujrtmAk+boG0IIAAAgi0RcAEcXWNx+on7cWBCweEdCFdSOcAB04W58J6W8W5vUEAgb4JmCDuotgXfLDgQH0OCOkCmoDGAQ5cckBY77uwt/cIIFA/ARPE1RdIhEhtxoGrDgjpl4pzclyVAw88enZAWK+/ULcHCCDQH4FPfvnKiWe1LQc4UL0DQjqJq5e45yBp36c/kSKs91fk22MEEKiTgAniph8T1R0Yc2AeB4R0IV1I5wAHtnDAbPB1Fu22GgEE2icQE8TdffrIWLbFWCZgzROwcMZ5XweEdB2aQY0DHNjBAWG9/YLfHiKAQD0EYoK4d799YBzbYRzbNzz4ewGUA9M7IKTr1AxsHODAAAeiKPzo58/P4wqOBQEEEEBgfgKfvTg2fg0YvwSs6QMWxhjv64CQrnMzwHGAA3s4EGE9noM8e/Vi/grVJyKAAAKdEnh4dmTs2mPs2jdA+HshlAPTOiCk6+AMchzgwEgORFiPV/9YEEAAAQSmIRB3L8WEngLCtAEBX3w5UNYBIX2k4pzIZUXGH/9MDsQERnEbpgUBBBBAYDwC8fx5zAuSqb+3LeoPDnBgCgeEdCHdYMcBDkzkQBSTnlsfr0C3JgQQ6JdAnPg0QZwwNEUYsk5eZXRASJ+oOM/Y2LZJJ8SBcg64Fb7fcGHPEUBgPwKePy83dqkbsOdAGQeEdCHdVVQOcGBGB5a3wpsVfr+i3V8jgED7BDx/XiYcCGW4c6C8A0L6jMU54csLrw20QRYHlrPCxzOWFgQQQACBqwS8/9x4nWW8th1cLOGAkC6ku4rKAQ4UdsDV9avFuX8hgEDfBLz/XCgqEYp8Ju8yOSCkFy7OM8lgW3ROHCjrwPLqute49R1Q7D0CPROI+TuMRWXHIvzx50B5B4R0Id1gyAEOJHQgZob/5Jevzs9evei5XrfvCCDQCYHo6+KuIuGgfDjQBtqAA+UdENITFucOjPIHhjbQBpkceP/Z49fvXTfZXCdpxW4i0BmBuHvI69WMu5nGXdvCx9IOCOlCurPWHOBAJQ4sb4f/8tdvOivh7S4CCLRK4KOfPzcGVTIGlQ4tPl9w7skBIV3HaHDkAAcqdGAZ2M0O32p0sV8ItE0g7gy6/+PHxp8Kx5+egpJ9dWKglANCus7RAMkBDlTuQDy//vDs6FxgbzvU2DsEWiEQfVX0W6WKX58reHGAA9kdENIrL86zC2b7dIIcmNcBgb2VGGM/EGiTQLxezfPn844LxmG8OVCfA0K6kO5MNgc40KgDAnubIcdeIVAjgbi93evV6gsKwp0240AZB4T0RotzB1SZAwp33LM6sHyG3aRzNcYb24xA3QS8Xs3YmHVstF3czOqAkC6ku4rKAQ506EBM2BS3nXqtW93hx9YjkJ1AnBh0e7sglDUI2S5uZnVASO+wOM8qo+3SUXKgjAN3nz46j9cgmXgue9yxfQjURSAmtNSvl+nXccedA3U7IKQL6QZQDnCAA28cWN4W7yp7XWHI1iKQiUDcofP+s8dv+hVhoe6woP20Hwfmd0BIV5wbRDnAAQ6sdSCussfVsK9/e5YpA9gWBBBISiD6Cre3z1/QC1GYc6AtB4R0xfna4tzB3tbBrj215xgOxLPsn/zylVvjkwYkm4VASQLx2MwY/Yx1GK84wIHeHRDShXQDKgc4wIFBDsTVMqG9ZCTy2QjkIOD2doGq90Bl/x0DYzsgpCvOBxXnY4tofTo3DtTvwDK0x9U0t8fnCE+2AoGpCbi9vf6+2/irDTmQzwEhXUgX0jnAAQ5M5kBMHhXPtMdrmLzubeq4ZP0IzEvA7e35CnthS5twoA0HhHTF+WTFuU6ijU5CO2rHMR1477sP39wi72r7vIHKpyEwFgG3txsXxhwXrItPHLjpgJAupAvpHOAAB4o6EDPIf/DTp68npBPcx4pR1oPANATc3n6zmBYwMOEAB8Z2QEhXnBctzscW2vp0khxow4Hrwd2t8tMELmtFYBcCbm9vo381TmpHDuR3QEgX0oV0DnCAA1U4ELfKxzPuERQ+e3Fscrpd0pXfRWAPAm5vz1/QC13aiANtOSCkK86rKM51PG11PNpTe47pwKrw7sr7HonMnyJwiYDb2/XXY/bX1sUnDmzngJAupAvpHOAAB5p1IK68x7vcL199F+AvJTBfIrCBQLyZQUG9XUGNE04c4MCYDgjpinMDMAc4wIHuHLg8y/wPfzzfEFP8CIH+CJy9enEe80KMWXBalwDDAQ5wYHsHhHTFuUGYAxzgQPcOvPvtg9czzMez7q609xdK7fEFgS//v707do3kSPsArGRmFSpyvMnlm1y+wfcHTKAeNhRcdtGCuVzgzMnCwsUCh06Eg42HL1h1Y8PJHFxgOJDBwYIDiw9s+IIDHa92e1caaVYzo+6erqpHYGStpFH3W0/11K+6u/q376+iPxhMrz+YViu1YoCBrg0I6Qbn3ogZYIABBpYMxFnE1+/eXMUZRR8qUEIFYnIqHoXY9UDT6wkvDDDAwOYGhPSlgRlEmyNSMzVjgIGcDURgd4a9hJha7j7GLR8ub3ccz/k4bt/4Ts2AkC6kmzVngAEGGFjDQHtJvHvYyw2zOe55XDHi8nYBJrUAY3uZzd2AkL7GwCx3BPbPgY4BBhjYzECsGh+PpvKhAqlWIC5vjycf6Pub9X31Ui8GGBjCgJAupHuDZoABBhjY0oCwnmpELXu7Y4IpnnAwxEDT3xBoGGCAgc0NCOlbDsxg2xybmqkZAwzkaiAW3LIqfNnBN5W9/+qXb4VzYz8GGGBg5AaE9JE3UK4DWvslrDHAQG4G4r7eeHyVDxUYYwU8+9wxN7djrv1hOmcDQrqQbiaNAQYYYKBDA3FW3YcKjKkCnn0uzOQcZuwb3zkaENI7HJjlCMQ+OfAxwAADmxuIx1m5/H1MMbXMbfHs8837ruOdmjHAwBgMCOlCujNoDDDAAAM9GBDUywzGY9nreFSgxeGEjTGEDdvAIQObGxDSexiYgbg5RDVTMwYYyNFArP7uQwWGroDF4RxPczye2ieuSzIgpAvpzqAxwAADDPRo4MufT4bOaP5eoRWIxeFiYqikgax9FdwYYCBHA0J6jwOzHMHYJwdCBhhgYHMD8VxqHyrQZwW++XVxFU8Y0D83759qpmYMMDA2A0K6kO4NnQEGGGCgZwMue+8znpb92rE43OFPX+vDPffhsQ3gbY9QyUDeBoR0B3Vv7AwwwAADAxiIhbx8qECXFYgrNCwOl/dAXRDTvgyUaUBIH2BgpnOV2bm0u3ZngIGbBtyb3mU89Vrh6aYv/+94wwADDORjQEgX0r3JM8AAAwwMYCDOePpQgcdWIK7IiMf7GYznMxjXltqSAQaWDQjpAwzMlovuax2RAQYYKNNArL7tQwW2rcDrd28sDmfcZoKGAQYKMCCkF9DIwkCZYUC7a3cGxmcgVuD2oQKbVsCj1cbXlx1ftQnDQLyCAAAgAElEQVQDDPRpQEgX0s3GMcAAAwwMZMB96ZvGUz//3W/fO3s+UP/sc8DttQU6BhjYxICQ7sBvcM4AAwwwMJABj2ITutetgEerGdBvMqD3s7wwkJcBIX2ggZmOk1fH0Z7akwEGtjHwxQ9H62Y0P1dwBTxazfFlm+OL3+GGgXwMCOlCujNoDDDAAAMDGig4e9r1ByoQZ889Wi2fQbbApC0ZYGBbA0L6gAOzbRvJ7+ngDDDAQD4GrPD+QFIt9NserZZPH3e81pYMMPBYA0K6kO4MGgMMMMDAgAbiUmYfKnCzAl/98q0+OGAffOzg2e8LYAww0LcBId2bgoEBAwwwwMCABoT0m/G07P939txAv++BvtdnjIE0DQjpAw7MdJI0O4l2024MMNClASG97GDe7v3rd29MjhmDMcAAAwzca0BIB+NeGF0OSL2WgMMAAwx8MiCktzG1zM+xJkE8ik+f+NQn1EItGGCAgdsGhHQh3UCBAQYYYGBAA0J6meE89jrOnsdj+AxGbw9G1UM9GGCAgdsGhPQBB2bw3canHurBAAMlGhDSywvpzp471pV4rLPP3DOwvQEhXUg3o88AAwwwMKABIb2skP7NrwtnzwfsX0LB9qFA7dSOgfEYENK9cRicM8AAAwwMaEBILyOkX/7n96vDn77WtwbsWwLGeAKGttAWDDzOgJDuzcMAggEGGGBgQANCev4h/bvfvnf2fMA+JQw8Lgyon/oxMD4DQro3EYNzBhhggIEBDQjp+YZ0Z8/HN9AVPrQJAwykaEBIH3BgliIQ2+zAxgADDHRrQEjPM6Q7e95tP3HcUU8GGCjZgJAupDuDxgADDDAwoIFY6dtHPhVw9lyQKDlI2Hf+GejHgJA+4MAM4n4Qq6u6MsBASgbyiaf2xNlzx56Ujj22lVcG0jEgpAvpzqAxwAADDAxoQLRNvwLOnqcz0BVKtBUDDKRoQEgfcGCWIhDb7MDGAAMMdGfgT//4a/oJtfA9cPa8u/7g2KKWDDDAwP0GhHQh3Rk0BhhggIGBDPzPv44Lj7jp7r6z5/cPJA2w1YUBBhjo3oCQPtDADN7u8aqpmjLAQGoGhPQ0Q/o3vy4899x4yWQmAwwwMJgBIR22wbClNpi2vQIgAwx0beCrX75NM6UWutWxEn9MrHTtwOs5tjDAAAMMfM6AkC6kG3wwwAADDAxkQEhPJ+2/fvfG2fOB+sXnBqq+J8gwwECJBoR0b0AG5wwwwAADAxmIRcd8jLsCzp4LBCUGAvvMPQPjMiCkDzQwA39c8LWH9mCAgV0Y+N//+9e4E2rhW+fsuePCLo4L/iZ3DDCwbEBIF9KdQWOAAQYYGMhA4Rl4tLv/4x8XV3/+59/0g4H6wfJg1NcCCgMMMHDbgJDuDcmghAEGGGBgAAOekT7OjB7rBBgc3h4cqod6MMAAA7s1IKQPMDCDfLfI1V/9GWBgDAY8fm1cIT1uPXD23LFhDMcG28AhAwwsGxDShXRnEBhggAEGBjBgZfdxhPTL//x+9eXPJ8wPYH550OlrQYQBBhhYz4CQ7k3KQIUBBhhgYAAD3/y6GEdKLXgr4ux53HZgkLjeIFGd1IkBBhjYjQEhfYCBGdy7wa3u6s4AA2MyYGX33c0OxNnzw5++Fs6NeRhggAEGkjAgpIOaBNQxDbRti+DHAAPbGNhdRC37L8cVDF/8cOS9zniHAQYYYCAZA0I6rMlg3WZQ7HeEKQYYGIMBK7sPP1Hw8///ehWL9Y2h/W2D4xADDDDAwCYGhHQh3QCGAQYYYKBnA1Z2HzakxyJ9zp4bEG8yIPazvDDAwJgMCOk9D8zG1Ni2xcGHAQYY2I0BK7sPE9J//OPCY9WMa0w6MsAAA8kbENIhTh6x0LGb0KHu6s7A+gas7N5vSPdYtfUt6rdqxQADDIzfgJAupAvpDDDAAAM9G7Cye38h/bvfvvdYtZ79GtCPf0CvjbQRA3kZENK9sRmcM8AAAwz0bKC/iFruK8fCcB6rltegVMjQngwwwMB7A0J6zwMz0BxsGGCAgbINWNm9+4mE1+/eWBjO+MXkIgMMMJCzgZO9aT0/NogsexCp/bU/Awww0I8BK7t3F9ItDNePUX1fXRlggIGxGZgfC+lmoXKehbJvfDPAwE4NWNn98SHdwnBjGzzaHoGGAQYY6NfA/Hjvydnhy37/iEZUXwYYYICBMg1Y2f1xIT0WhvPM8zL7jmOmdmeAgXINzI/39uvD5+UWAH5tzwADDDDQnwEru28X0mNhuLhVgM3+bKqt2jLAAANjNSCkGwC4FJYBBhhgoDcD20XUcn8rLm2PWwQMHMc6cLRdbDLAAAP9GxDSDQQMzhlggAEGejFgZffNJhviqoOoWf+DHwNMNWaAAQYYGK+BuB3d5e4GpwZEDDDAAAM9GLCy+3oh3TPPxztQNIjXNgwwwMDwBuJ29L3J2+qZ4g9ffDVXcwYYYCBvA1Z2fzikR40sDJd3P3Cc074MMMDAZgauQ/re3t6ewm1WOPVSLwYYYICBhwxY2X11SHdpu/7zUP/xfUYYYKBUA0J6D5c3lorJfjuQMsAAA7cNWNn9bkh3afttI/qMejDAAAMMLBuIK93jRLoz6cK6+1EZYIABBjo2cDeilv0vLm03EF0eiPqaCQYYYOCugeuAfh3Sm+pcge4WSE3UhAEGGGBgGwNWdv80IeHSdn1omz7kd7hhgIFSDXwM6ZO6WpRaBPvtAMAAAwww0LUBK7tfXcWl7VGHrmvr9fRXBhhggIGcDQjpHV/amDMW++ZgyAADDKxvoOSV3S//8/tV7D8v63tRK7VigAEGGAgDcfL8U0hv5q/AAIMBBhhggIFuDHz32/efrvcu6P9iRfu41J+jbhypozoywAADZRm4FdKn9fwYgLIAaG/tzQADDPRn4Mc/LgqK5ldXcd+5S9v786Svqi0DDDBQiIGmOv14Jv3J2eFLDV9Iw7vE3xkeBhhgoHcDpST0uLT9L//+e+/1NEYxRmGAAQYYKMPA/PhjSI8Hppex03BrZwYYYICBfg38+Z9/KyKje6Rav470U/VlgAEGSjQgpJv5dzaNAQYYYKBzA7mv7O6+8xIHjfZZWGKAAQYGMXA2n308k763mB0M8kcNBjsfDGo3BwwGGGBgXAa+/PkkyzPp7jsflzP9XnswwAAD+RmIK9w/hfS9vT2NnF8ja1NtygADDAxvILfHr8Xzzt13PrwjfVfNGWCAgfIM7Ncvnt4O6U11DkJ5ELS5NmeAAQa6NZBLSPe8825d6GfqyQADDDDwkIFbAT2+iGeyPfRLvg8WAwwwwAADnzcQl4Wn/vH63ZurL344couW2/QYYIABBhgYzsDF3ZDezF8ZeH1+4KU+6sMAAwww8JCBlEO6ReH4fsi37zPCAAMM9GMgTprfCenTen6s4P0UXF3VlQEGGCjHQIohPbY5Hh3HaTlOtbW2ZoABBkZn4ORuSD+bzzTU6BrKgGm4y0vUWq0ZYKATA3E2OpWPCOfxyDjv/97/GWCAAQYY2LWBG89Ib9N6LPeuYXbdMP4+gwwwwEDqBlJYOC5WbD/86Wvh3MQUAwwwwAADYzFw6xnpbUr3GDZAxwLUdrDIAAMJGxjzc9I9Ts0kWOqTYLafYQYYyNXA5G317EY0//S/07q6yHWn7ZcOzQADDDAwhIG4t3tsH8I5+0PY9zc4Y4ABBrY38CmVL/2fx7BtX1Qg1Y4BBhhgoDUQzxgfw4dwzmRr0mcWGGCAgVEbuPv4tTarW+F91A3n8teEL391UNS3GCjLwK4Xj7MgXFneHF+0NwMMMJC2gXsfv9aG9EldHWngtBtY+2k/BhhgYPcG/vSPv+7kRHpMDlitffftrw9qAwYYYICBzQzcs7J7G9Kt8A7TZpjUS70YYICBVQZev3szSFCPS9pjRfmYGFi1Lf6dUwYYYIABBsZrIE6Wt5n83s8ab7yNp220DQMMMJCOgS9+OLr68Y+L3oJ6nDX3GLV0POi72ooBBhhgYJWBOFl+bzhv/9EK7/CswuPf2WCAAQY2MxBB/bvfvu8sqMdr/eXff7+K19UWm7WFeqkXAwwwwMBYDbRZfOXnaVOdjnXjbZeOxQADDDCQooEI1nFZ+qYfcSY+Lpt3xpz7FN3bZm4ZYICBNQw01fnKcN5+wwrvaxTSKuPO4DDAAAMMbGEgnqH+5c8nV3GpeqzAvvxf3Fse34/F35wt935scMsAAwwwUISBkzaLr/xs8bgiIBhcbzG4dpDUNxhggAEGGGCAAQYYYKBLA0/ODl+uDOcfv7GYHXT5R70WxAwwwAADDDDAAAMMMMAAAwzcNfDgonFtULd43N3iAaUmDDDAAAMMMMAAAwwwwAADXRpoM/iDny0eB16X8LwWTwwwwAADDDDAAAMMMMDAkoF1Fo1r07vF45aK5/5l97AzwAADDDDAAAMMMMAAAwx0a+DhRePakG7xOCHdLBcDDDDAAAMMMMAAAwwwwEB/BiZ1ddRm8LU+a4z+GkNt1ZYBBhhggAEGGGCAAQYYKNvA5G31bK1w3v7QtKnOoSkbjfbX/gwwwAADDDDAAAMMMMBADwaa6rLN3mt/njTzVxqjh8bo9h4G94SoJwMMMMAAAwwwwAADDDCQmIFJXS3WDuftD07P5jMhXUhngAEGGGCAAQYYYIABBhhgoGsD8+M2e6//eTE70BBdN4TXY4oBBhhggAEGGGCAAQYYKN1ALNa+fji/8ZPuS9d5Su889l8fYIABBhhggAEGGGCAga4N3Ijdm/2v+9Jh7Bqj12OKAQYYYIABBhhggAEGSjaw1f3obZR3X7rOU3Lnse/8M8AAAwwwwAADDDDAQPcGtrkfvU3p7ku3SmJiqyR234EclNSUAQYYYIABBhhggAEGujOw8fPR23zefnZfeneNAbZaMsAAAwwwwAADDDDAAAMFG9jm+ehtOG8/uy+9YEDOoruSggEGGGCAAQYYYIABBhjozkBTnbZZe+vPsTS8mR5BnQEGGGCAAQYYYIABBhhggIHHGZjU1dHW4fzmL06b6lJjPK4x1E/9GGCAAQYYYIABBhhggIGyDezXL57ezNpb//+0qU5hKhuT9tf+DDDAAAMMMMAAAwwwwMAjDDTV+dahfPkX45S8xnhEY7iHo7t7ONRSLRlggAEGGGCAAQYYYCBBA7He23LW3vrrOCUvpAvpDDDAAAMMMMAAAwwwwAADDGxnINZ72zqU3/eLHsW2XUMArG4MMMAAAwwwwAADDDDAQOEGunj02nJQf3J2+BKswmEleEkJs8wywAADDDDAAAMMMMDACAycLGfsR389eVs9G8GOufdCUGaAAQYYYIABBhhggAEGGEjLwNl89uhQft8LTOvqQlA3C8UAAwwwwAADDDDAAAMMMMDA+gbuy9ed/FusRqch1m8ItVIrBhhggAEGGGCAAQYYYKBwA0112kkgv+9FXPJeOC6X1KR1SY320l4MMMAAAwwwwAADDOzcQDzS/L583dm/ueRdUDcTyAADDDDAAAMMMMAAAwwwsJ6BvcXsoLNAft8LueR9vYYAVp0YYIABBhhggAEGGGCAgcIN9HmpexvYXfJeODKXy+z8chkHen2QAQYYYIABBhhggIE0DPR+qXsb1F3yngYIHVc7McAAAwwwwAADDDDAAAM7MtBUl22G7v3zk7PDlxp6Rw3tTLYz2QwwwAADDDDAAAMMMMBACgZOeg/n7R/Yr188FdKFdAYYYIABBhhggAEGGGCAAQZWGDibz9oMPcjnSV0tNMaKxjCrlcKslm3klAEGGGCAAQYYYIABBvoycDFIML/5R+IGeCFdSGeAAQYYYIABBhhggAEGGGDgtoF4KtrN/DzM/y9mB9OmutQYtxtDPdSDAQYYYIABBhhggAEGGCjbQNwiPkwwX/or07o6ga9sfNpf+zPAAAMMMMAAAwwwwAADNww01flSdB7uy/368LnGuNEY7ufo634Or8sWAwwwwAADDDDAAAMMJGFgsGejr4r+npkupJuoYYABBhhggAEGGGCAAQYYqK7ilvC9xexgVX4e5N89M11n1BkZYIABBhhggAEGGGCAAQauDQz3bPSViT8WkHPZRRKXXWgnB04GGGCAAQYYYIABBhhgoD8Dk7fVs5XZechvWECuv0bWgdSWAQYYYIABBhhggAEGGEjAwC4XjFueALCAXAJgXO3gagcGGGCAAQYYYIABBhhgoDcDO18wbjmoT5vq3OyOsM4AAwwwwAADDDDAAAMMMFCcgVgwbmwfMWtQXEOYheptFoolB3YGGGCAAQYYYIABBhhIx8D8eGwZ/Xp7Yrn5dIoIvLZigAEGGGCAAQYYYIABBhh4vIH9+sXTcYb0en6sgR/fwGqohgwwwAADDDDAAAMMMMBAMgZG8Ni1FVMEMXsAUjKQXKrudgUGGGCAAQYYYIABBhhg4JEGYiH1FRF5HP/scWxCuokaBhhggAEGGGCAAQYYYKAEA5O6WowjiX9mK5xN1xlL6Iz2kXMGGGCAAQYYYIABBhiYns1nn4nH4/lWzCYACywDDDDAAAMMMMAAAwwwwEDGBi7Gk8If2JK4Jj/jhnDPxiPv2WDDgZoBBhhggAEGGGCAAQZSNxCPIX8gGo/r286m63SpdzrbzzADDDDAAAMMMMAAAwysMJDOWfR2qsDZdJhXYHYlgisRGGCAAQYYYIABBhhgIGkDyZ1Fb4O6s+mCuqDOAAMMMMAAAwwwwAADDGRloKku9xazgzb3JvXZ2XSdMavOaLYz6dlOFh2PGGCAAQYYYIABBroxMD9OKpgvb6yz6TpCNx1BHdWRAQYYYIABBhhggAEGdmwg5bPobVh3Nn3HiJz9dfaXAQYYYIABBhhggAEGGOjIQOJn0dug7my6oG7GjwEGGGCAAQYYYIABBhhI2kAOZ9HbkO5sus6YdGc069jRrKN+oB8wwAADDDDAAAMMpGsg2RXd22C+/NnZ9HQxOpBoOwYYYIABBhhggAEGGCjcQHrPRV8O5ctfO5uuUxfeqZ2NdkUCAwwwwAADDDDAAAOJGsjuLHob2KdNdSqoCesMMMAAAwwwwAADDDDAAAMJGcjvLHob0vfrF08TagizXInOcjHmgM8AAwwwwAADDDDAAANdGYirwttMm+XnaV2ddFUsr6PjMcAAAwwwwAADDDDAAAMM9GUg1lbLMpjf2qnF7GDaVJd9FdHr6qAMMMAAAwwwwAADDDDAAANdGJi8rZ7dyrO5fjGt58ddFMxr6HgMMMAAAwwwwAADDDDAAAM9GTjJNZPf3a84m15XFz0V0r3k7iVngAEGGGCAAQYYYIABBhjY3kBTXcaaanfDbMb/Mj2bz4R0M14MMMAAAwwwwAADDDDAAAPjMzA/zjiOr961uAl/fI2hg2gTBhhggAEGGGCAAQYYYKBgA/k+cm11PH//nbgJv+CG3/7SC5etqB0DDDDAAAMMMMAAAwww0I+Bs/nsoSyb9fcnzfyVoG6WjgEGGGCAAQYYYIABBhhgYNcGynjk2kNTDB7J1s/sj1k1dWWAAQYYYIABBhhggAEGNjJQ3GJxq/K6ReTMmO16xszfZ5ABBhhggAEGGGCAgdINFLpY3KqgbhG50juE/femwAADDDDAAAMMMMAAAzszUO5icatCelxWAOTOQG50CYh20k4MMMAAAwwwwAADDDCQk4H9+vD5qqxa9L9P6/lxTg1tXxy4GGCAAQYYYIABBhhggIHRGzgpOog/tPPTpjqHePSInXm3AAcDDDDAAAMMMMAAAwykb6CpLvcWs4OHcmrR3/fsdAHdJA0DDDDAAAMMMMAAAwwwMIiB0p+Jvu7sg8vedchBOqSZz/RnPrWhNmSAAQYYYIABBhjY1kBTna6bUf1cPDu9ri4ENWGdAQYYYIABBhhggAEGGGCgcwMuc9983sFl7zpi5x1x2xk2v2d2lgEGGGCAAQYYYICBvAy4zH3zkB6/4bJ3QV1QZ4ABBhhggAEGGGCAAQY6NeAy9+0CevtbVnvXITvtkGZA85oB1Z7akwEGGGCAAQYYYGATAy5zb6P29p9d9i6kC+kMMMAAAwwwwAADDDDAQCcGXOa+fTi/+ZtPzg5fdtIgm8yw+FkzcgwwwAADDDDAAAMMMMBANgYmzfzVzZzp/x9ZgUldLQR1s2cMMMAAAwwwwAADDDDAAAMbG2iq873F7OCRsdSv36pAPJatqS43bgwzX9nMfGl7B2MGGGCAAQYYYIABBhjYxkDcRn0rX/qimwpMz+azbRrE7+jIDDDAAAMMMMAAAwwwwECZBuL26W4SqVe5twJxH4HOVWbn0u7anQEGGGCAAQYYYIABBjYy4HFr9+bqzv/RY9l0zI06plse3PLAAAMMMMAAAwwwwECJBi7ch955HL//BffrF0/dny6oC+oMMMAAAwwwwAADDDDAwCoD7kO/P0/39q/uT9cZV3VG/84GAwwwwAADDDDAAANlG3Afem9R/PMv7P70sjueA6/2Z4ABBhhggAEGGGCAgTsG3If++SDd93c9P12nvNMp3W9U4v1G9pl7BhhggAEGGGCAgatYv8x96H2n8IdeP56fXlcXgpqwzgADDDDAAAMMMMAAAwwUbKCpLt2H/lCAHuj70RAWkiu4M5oxNGvMAAMMMMAAAwwwwAADZ/PZQBHUn1mnApO6OjJrJqgzwAADDDDAAAMMMMAAAyUamB+vkxv9zMAVsJBciZ3RPnsTYoABBhhggAEGGGCgaAMWihs4eW/45ywk5wBV9AHKZV4u82KAAQYYYIABBhgoyYCF4jZMzLv48VhIrqnOBTVhnQEGGGCAAQYYYIABBhjI2EBTXe7XL57uInb6mxtWIBrKQnIZd8aSZgbtq5lwBhhggAEGGGCAAQbuNWAl9w2D8q5//HrFd5jvxWw20QQGAwwwwAADDDDAAAMMpGwgFg7fdeb097eogBXfHXhSPvDYdn4ZYIABBhhggAEGGLhr4MnZ4cst4qFfGUsFogHBvgtbTdSEAQYYYIABBhhggAEGEjRwMpasaTseUYFpXZ0kiM+l6m5XYIABBhhggAEGGGCAAQZaAx619ohUPMJfFdTNEpqoYYABBhhggAEGGGCAgUQNeNTaCFN2B5vk0WyJdsh25sxns6gMMMAAAwwwwAADDJRnQEDvIA2P9SU8Q728Du0grs0ZYIABBhhggAEGGEjXQFNd7i1mB2ONmLariwoI6ul2UAdXbccAAwwwwAADDDDAQDkGmurSs9C7CMEpvEYE9bq6cD+Ky98ZYIABBhhggAEGGGCAgREaENBTSNbdbmPMyEyb6lKHHGGHNDtazuyottbWDDDAAAMMMMAAA8sGBPRuw29KryaoC+gmaRhggAEGGGCAAQYYYGBEBgT0lCJ1P9sqqI+oQy7PoPnarCoDDDDAAAMMMMAAA0UZ2K8Pn/eT/LxqUhUQ1AV1s6cMMMAAAwwwwAADDDCwWwOTujpKKkja2H4rIKjvtkM6IKo/AwwwwAADDDDAAAPlGhDQ+827yb66oF7uQcEbgrZngAEGGGCAAQYYYGAHBmIx77P5LNkQacP7r4CgvoOO6T6jou4z8uanjzHAAAMMMMAAAwxcG7BIXP8BN5e/IKg7aHjjYIABBhhggAEGGGCAgR4NCOi5xOfh9uNDUD/XMXvsmM6gO4POAAMMMMAAAwwwwEB5BgT04YJtdn9pMTuYNpWg7sBZ3oFTm2tzBhhggAEGGGCAgT4MCOjZxebhd0hQd3Dq4+DkNbligAEGGGCAAQYYKM1AU53HFcvDhzp/Mb8KvA/qpy59d+k7AwwwwAADDDDAAAMMMLCFgaY631vMDvILi/ZopxWY1tWJDrlFhyxthtD+mhVngAEGGGCAAQYYYOCTAQF9pzk2+z8+aeavBHVBnQEGGGCAAQYYYIABBhhYy8BJ9iHRDu6+ApO6OtIh1+qQn2bPzCSqBQMMMMAAAwwwwAADRRmIE5y7T2+2oJgKTM/ms2lTXQrrwjoDDDDAAAMMMMAAAwwwcNtAnNgsJhza0fFU4MOz1AV1M6JFzYh6A7r9BqQe6sEAAwwwwAADDNww0FSX+/Xh8/GkNltSXgU8ok1ANUnBAAMMMMAAAwwwwAADYeDCI9bKi8Tj3OMI6lZ+d2B2YGaAAQYYYIABBhhgoFQDVnAfZ1Ytfaum9fzYpS43LnUp9QBlv705M8AAAwwwwAADDJRlwArupYfhMe+/BeWEdBM1DDDAAAMMMMAAAwyUYsACcWNOp7btYwU+LCh3XkrHtJ/ehBhggAEGGGCAAQYYKMxAU126//xjBPQ/SVTAfeoucSrrEiftrb0ZYIABBhhggIFCDEzqarG3mB0kkctspAosV+DJ2eFLs4qFzSoWcnDmmmsGGGCAAQYYYKA8A5Nm/mo58/haBZKrwPXl73V14SBW3kFMm2tzBhhggAEGGGCAgSwMNNVlrL+VXBizwSqwsgLvn6d+mkUHdabYpVwMMMAAAwwwwAADDJRjoKnO9+sXT1dmHd9QgZQr4PJ3M6kmahhggAEGGGCAAQYYSMWAy9tTTp+2fe0KuPzdQTmVg7LtZJUBBhhggAEGGCjUgMvb1853fjCXClj9vZzLg1wKpq0ZYIABBhhggAEGEjJg9fZcQqf92KoCsfjCNGapEuq0trXQ2VRGDS4YYIABBhhggIG8DTTVZdyeu1Ww8UsqkFUFLCqX98HOm5n2ZYABBhhggAEGGBi7gaY6j9tys8pZdkYFHluB60XlnFV3AB/7Adz2McoAAwwwwAADDGRmYH782Czj91Ug2wrEow3iHhCXlLuknAEGGGCAAQYYYIABBno14Ox5trnSjvVQAWfVHZB7PSCb/c5s9lt/0V8YYIABBhhgYFMDzp73EOO8ZPYVcK+6ICVMM8AAAwwwwAADDDDQoYG4ate959knSTvYdwWuV4Cvqwuzg5vODvp5ZhhggAEGGGCAAQYYuDZg5fa+Y5vXL64Ci9nBpPfY+joAAAV4SURBVJm/cpB1kGWAAQYYYIABBhhggIGNDDTV6d5idlBchrLDKjBEBeLSFAvLOShvdFDu8PIof5c9BhhggAEGGGAgKQMX+/Xh8yFyir+hAsVXYFJXR1OPa3N/kgDOAAMMMMAAAwwwwMCygeucYGG44kOjAuygAi6Bd0BePiD7mgkGGGCAAQYYYKBsA011Go913kE68SdVQAXaCni2elKXHJX9pmHQoP0ZYIABBhhggIF+DDTVuUvb24TkswqMpALRKadWge/noOfNRF0ZYIABBhhggAEGxmngIm6FHUkksRkqoAL3VcD96s6sW9CFAQYYYIABBhhgIHMD7X3nVm2/LxL5NxUYYQUWs4NpPT+2uFzmB+dxzuaaZdcuDDDAAAMMMMBAjwbi0cweqTbCDGaTVGCtCrRhvceDhFlaEwEMMMAAAwwwwAADDAxi4MSicGulID+kAuOvQHTmaV2dOHgOcvA0c2xSiAEGGGCAAQYYYKBLA8L5+COXLVSB7SogrAvpJmoYYIABBhhggAEGkjEgnG8Xe/yWCqRXAWE9mQNzlzOwXsuMPgMMMMAAAwwwkIYB4Ty9iGWLVaCjCrT3rF+vDim4mlVmgAEGGGCAAQYYYGCHBoTzjmKOl1GB9CsgrJtVTmNWWTtpJwYYYIABBhjIy8CHR6lZEC79SGUPVKC3Clw/Z72uLnY4g5jXgdcbqfZkgAEGGGCAAQYYuGvg4snZ4UuPUust1nhhFcivAvv14fNpU50K6y75YoABBhhggAEGGGCgGwOTulrESbH80oM9UgEVGKwCcenNpJm/mrpv3Qzw3RlgNVETBhhggAEGGGBgPQMnk7fVs8EG8f6QCqhAARVYzA6uL4VvqnMzqd3MpKqjOjLAAAMMMMAAA1kbcEl7ATHJLqrAKCoQs4DTujpxdj3rNxWz4uvNiquTOjHAAAMMMMDAsoGTuHV0FAN3G6ECKlBYBT6cXY97a8wCC+wMMMAAAwwwwAADxRpoqnMLwRWWheyuCoy9AnHv+rSeH0+tDL88k+prs+sMMMAAAwwwwECeBi5i7Sb3mo89qdg+FVCBvThQXS82J7B7Q87zDVm7alcGGGCAAQZKNfB+MeWT6dl8ZtivAiqgAklW4PpRbu5f90Ze6hu5/WafAQYYYICB9A0I5knmEButAiqwRgWcYXefWrH3qRmgpT9A04bakAEGGCjLgGC+xujej6iACmRVgfcrxM+Ppx7pVtYbngGO9maAAQYYYICB8Rpwj3lWicPOqIAKbF2BWHTuwzPYTz3Wzdl2Z9sZYIABBhhggIHBDDTVaazKHuPRrQezflEFVEAFcq9Ae5bdo928QQ/2Bj3eGX1nW7QNAwwwwAADXRpoqvNY4NhzzHNPFPZPBVSg1wq8X3xufiy0C+1COwMMMMAAAwwwsJGBD6H8ejX2xeyg10GrF1cBFVCBUivQhvZpU7k8vsuZZa/lTAUDDDDAAAMMpGygqS7fn9SZH1+fKRfKS40L9lsFVGDXFYh7iGJ2NC5dcrbd7PpGs+spD0Rsu4E0AwwwwEDhBmLc92H8dxS3S+56TOrvq4AKqIAKfKYCbXCf1h8vk78Q3gR4BhhggAEGGGAgSQMX7RnyWGxYIP/MINi3VEAFVCC1CsSlT9crydfXj387deY9yTdqZ04KP3NigK3fMsAAA5kaiPvH62rx4STLkUvWUxtp214VUAEV6LICi9nB9b3uZ/PZ9RvDh0vnhfhMBwFCrokOBhhggAEGhjfwMYRXJzeDuMefdTmo9VoqoAIqUFAF4g0kgnz8F8/TjDeX5UAfof462DfVpVl+AZ8BBhhggAEGcjXQjnnaz9P6ffCOsdH7546/HzO5NL2gwbJd7aQC/wUoFO2Jl+D0TQAAAABJRU5ErkJggg==;" vertex="1" parent="1">
                    <mxGeometry x="-522" y="-45.92" width="78" height="77.92" as="geometry"/>
                </mxCell>
                <mxCell id="25" value="LIINE Plattform" style="text;strokeColor=none;align=center;fillColor=none;html=1;verticalAlign=middle;whiteSpace=wrap;rounded=0;" vertex="1" parent="1">
                    <mxGeometry x="-526" y="32" width="91" height="25" as="geometry"/>
                </mxCell>
            </root>
        </mxGraphModel>
    </diagram>
</mxfile>